<?xml version="1.0" encoding="UTF-8" standalone="no"?>
<!-- Created with Inkscape (http://www.inkscape.org/) -->

<svg
   width="490mm"
   height="490mm"
   viewBox="0 0 490 490"
   version="1.1"
   id="svg42822"
   inkscape:version="1.1.2 (b8e25be833, 2022-02-05)"
   sodipodi:docname="logo_bekalabs.svg"
   xmlns:inkscape="http://www.inkscape.org/namespaces/inkscape"
   xmlns:sodipodi="http://sodipodi.sourceforge.net/DTD/sodipodi-0.dtd"
   xmlns="http://www.w3.org/2000/svg"
   xmlns:svg="http://www.w3.org/2000/svg">
  <sodipodi:namedview
     id="namedview42824"
     pagecolor="#ffffff"
     bordercolor="#666666"
     borderopacity="1.0"
     inkscape:pageshadow="2"
     inkscape:pageopacity="0.0"
     inkscape:pagecheckerboard="0"
     inkscape:document-units="mm"
     showgrid="false"
     inkscape:zoom="0.17772517"
     inkscape:cx="945.27975"
     inkscape:cy="1251.933"
     inkscape:window-width="1920"
     inkscape:window-height="991"
     inkscape:window-x="-9"
     inkscape:window-y="-9"
     inkscape:window-maximized="1"
     inkscape:current-layer="layer1" />
  <defs
     id="defs42819" />
  <g
     inkscape:label="Слой 1"
     inkscape:groupmode="layer"
     id="layer1">
    <path
       id="rect66-6-4"
       style="fill:#e6e6e6;fill-rule:evenodd;stroke-width:0.264583;fill-opacity:1"
       d="m 235.74063,217.87596 h 17.86466 v 17.86466 h -17.86466 z m -17.86465,17.86467 h 17.86466 v 17.86466 h -17.86466 z m 17.86465,17.86466 h 17.86466 v 17.86466 h -17.86466 z m 17.86469,-17.86467 h 17.86466 v 17.86466 h -17.86466 z" />
    <rect
       style="fill:#ffffff;fill-rule:evenodd;stroke-width:0.264583"
       id="rect66-834-2-0"
       width="17.864662"
       height="17.864662"
       x="325.0639"
       y="325.0639" />
    <rect
       style="fill:#ff0000;fill-rule:evenodd;stroke-width:0.264583"
       id="rect66-23-5-0"
       width="17.864662"
       height="17.864662"
       x="378.6579"
       y="164.28197" />
    <rect
       style="fill:#ff0000;fill-rule:evenodd;stroke-width:0.264583"
       id="rect66-23-5-9-5"
       width="17.864662"
       height="17.864662"
       x="307.19925"
       y="57.09399" />
    <rect
       style="fill:#ff0000;fill-rule:evenodd;stroke-width:0.264583"
       id="rect66-23-5-2-7-0"
       width="17.864662"
       height="17.864662"
       x="429.27448"
       y="90.962448" />
    <rect
       style="fill:#ff0000;fill-rule:evenodd;stroke-width:0.264583"
       id="rect66-23-4-4-0"
       width="17.864662"
       height="17.864662"
       x="414.38724"
       y="57.09399" />
    <rect
       style="fill:#ffffff;fill-opacity:1;fill-rule:evenodd;stroke-width:0.264583"
       id="rect66-23-4-1-04-3"
       width="17.864662"
       height="17.864662"
       x="360.79324"
       y="128.55264" />
    <rect
       style="fill:#ffffff;fill-opacity:1;fill-rule:evenodd;stroke-width:0.264583"
       id="rect66-23-4-1-04-3-9"
       width="17.864662"
       height="17.864662"
       x="360.79324"
       y="92.823318" />
    <rect
       style="fill:#ffffff;fill-opacity:1;fill-rule:evenodd;stroke-width:0.264583"
       id="rect66-23-55-4-1-3-5"
       width="17.864662"
       height="17.864662"
       x="342.92856"
       y="110.68798" />
    <rect
       style="fill:#ffffff;fill-opacity:1;fill-rule:evenodd;stroke-width:0.264583"
       id="rect66-23-55-9-3-2-9"
       width="17.864662"
       height="17.864662"
       x="378.6579"
       y="110.68798" />
    <rect
       style="fill:#ff0000;fill-rule:evenodd;stroke-width:0.264583"
       id="rect29659"
       width="17.864662"
       height="17.864662"
       x="378.6579"
       y="-74.958656"
       transform="scale(1,-1)" />
    <path
       style="fill:none;stroke:#000000;stroke-width:3;stroke-linecap:butt;stroke-linejoin:miter;stroke-miterlimit:4;stroke-dasharray:none;stroke-opacity:1"
       d="m 307.19928,110.688 v 17.86466 h -35.72931 v 17.86466 H 253.6053 v 17.86467 h 17.86466 v 17.86466 h 35.72932 l -10e-6,35.72931 h 17.86467 v 17.86467 h 17.86465 v -17.86468 h 17.86465 v -35.72932 h 17.86466 l -2e-5,35.72932 h 17.86467 v 17.86465 h 17.86466 v -17.86466 h 17.86465 v -35.72932 h 35.72932 l 3e-5,-17.86466 h 17.86464 V 146.4173 h -17.86467 v -17.86467 h -35.72932 l 6e-5,-17.86465 h 35.72931 l 3e-5,-17.864666 h 17.86467 V 74.958652 h -17.86467 l -3e-5,-17.864662 -35.72937,1.6e-5 V 21.36469 H 414.38721 V 3.50003 h -17.86466 v 17.86464 h -17.86467 l 2e-5,35.72932 -17.86466,5e-6 V 21.36467 H 342.92859 V 3.5 h -17.86465 v 17.86466 h -17.86467 l 10e-6,35.72933 h -35.72932 v 17.864662 h -17.86467 v 17.864662 h 17.86466 l -10e-6,17.864666 h 35.72933"
       id="path30042" />
    <path
       style="fill:none;stroke:#000000;stroke-width:1;stroke-linecap:butt;stroke-linejoin:miter;stroke-miterlimit:4;stroke-dasharray:none;stroke-opacity:1"
       d="M 450.11651,39.22935 V 3.50003 h 17.86467 v 17.86466 h 17.86464 v 17.86466 z"
       id="path30044" />
    <rect
       style="fill:#ff0000;fill-rule:evenodd;stroke-width:0.264583"
       id="rect66-23-5-0-7"
       width="17.864662"
       height="17.864662"
       x="-110.68802"
       y="-325.0639"
       transform="scale(-1)" />
    <rect
       style="fill:#ff0000;fill-rule:evenodd;stroke-width:0.264583"
       id="rect66-23-5-9-5-1"
       width="17.864662"
       height="17.864662"
       x="-182.14667"
       y="-432.25189"
       transform="scale(-1)" />
    <rect
       style="fill:#ff0000;fill-rule:evenodd;stroke-width:0.264583"
       id="rect66-23-5-2-7-0-5"
       width="17.864662"
       height="17.864662"
       x="-60.071434"
       y="-398.38345"
       transform="scale(-1)" />
    <rect
       style="fill:#ff0000;fill-rule:evenodd;stroke-width:0.264583"
       id="rect66-23-4-4-0-0"
       width="17.864662"
       height="17.864662"
       x="-74.95871"
       y="-432.25189"
       transform="scale(-1)" />
    <rect
       style="fill:#ffffff;fill-opacity:1;fill-rule:evenodd;stroke-width:0.264583"
       id="rect66-23-4-1-04-3-2"
       width="17.864662"
       height="17.864662"
       x="-128.55267"
       y="-360.79324"
       transform="scale(-1)" />
    <rect
       style="fill:#ffffff;fill-opacity:1;fill-rule:evenodd;stroke-width:0.264583"
       id="rect66-23-4-1-04-3-9-4"
       width="17.864662"
       height="17.864662"
       x="-128.55267"
       y="-396.52258"
       transform="scale(-1)" />
    <rect
       style="fill:#ffffff;fill-opacity:1;fill-rule:evenodd;stroke-width:0.264583"
       id="rect66-23-55-4-1-3-5-4"
       width="17.864662"
       height="17.864662"
       x="-146.41736"
       y="-378.65793"
       transform="scale(-1)" />
    <rect
       style="fill:#ffffff;fill-opacity:1;fill-rule:evenodd;stroke-width:0.264583"
       id="rect66-23-55-9-3-2-9-9"
       width="17.864662"
       height="17.864662"
       x="-110.68802"
       y="-378.65793"
       transform="scale(-1)" />
    <path
       id="rect66-23-55-9-3-0-3-7-5"
       style="fill:#00aeff;fill-rule:evenodd;stroke-width:0.264583;fill-opacity:1"
       transform="scale(-1)"
       d="m -92.823395,-378.65793 h 17.864662 v 17.86466 h -17.864662 z m -71.458585,0 h 17.86466 v 17.86466 h -17.86466 z m 71.458646,-17.86465 h 17.864662 v 17.86466 h -17.864662 z m -17.864686,0 h 17.864663 v 17.86466 h -17.864663 z m -53.59396,0 h 17.86466 v 17.86466 h -17.86466 z m 17.86465,0 h 17.86466 v 17.86466 h -17.86466 z m 53.593935,35.72934 h 17.864662 v 17.86466 h -17.864662 z m -17.864625,0 h 17.864663 v 17.86466 h -17.864663 z m -53.59399,0 h 17.86466 v 17.86466 h -17.86466 z m 17.86465,0 h 17.86466 v 17.86466 h -17.86466 z m 17.86469,-53.594 h 17.86466 v 17.86466 h -17.86466 z m 35.729336,0 h 17.864662 v 17.86466 h -17.864662 z m -17.864686,0 h 17.864663 v 17.86466 h -17.864663 z m -53.59396,0 h 17.86466 v 17.86466 h -17.86466 z m 17.86465,0 h 17.86466 v 17.86466 h -17.86466 z m 17.86466,71.45865 h 17.86466 v 17.86466 h -17.86466 z m 35.729275,0 h 17.864662 v 17.86466 h -17.864662 z m -17.864625,0 h 17.864663 v 17.86466 h -17.864663 z m -53.59399,0 h 17.86466 v 17.86466 h -17.86466 z m 17.86465,0 h 17.86466 v 17.86466 h -17.86466 z m -250.10519,232.24061 h -17.86466 v -17.86466 h 17.86466 z m 71.45865,0 h -17.86467 v -17.86466 h 17.86467 z m -71.45865,17.864662 h -17.86466 v -17.864662 h 17.86466 z m 17.86465,0 h -17.86466 v -17.864662 h 17.86466 z m 53.594,0 h -17.86467 v -17.864662 h 17.86467 z m -17.86466,0 h -17.86466 v -17.864662 h 17.86466 z m -53.59399,-35.729322 h -17.86466 v -17.86466 h 17.86466 z m 17.86465,0 h -17.86466 v -17.86466 h 17.86466 z m 53.594,0 h -17.86467 v -17.86466 h 17.86467 z m -17.86466,0 h -17.86466 v -17.86466 h 17.86466 z m -17.86468,53.593984 h -17.86467 v -17.864662 h 17.86467 z m -35.72931,0 h -17.86466 v -17.864662 h 17.86466 z m 17.86465,0 h -17.86466 v -17.864662 h 17.86466 z m 53.594,0 h -17.86467 v -17.864662 h 17.86467 z m -17.86466,0 h -17.86466 v -17.864662 h 17.86466 z m -17.86468,-71.458644 h -17.86467 v -17.86466 h 17.86467 z m -35.72931,0 h -17.86466 v -17.86466 h 17.86466 z m 17.86465,0 h -17.86466 v -17.86466 h 17.86466 z m 53.594,0 h -17.86467 v -17.86466 h 17.86467 z m -17.86466,0 h -17.86466 v -17.86466 h 17.86466 z" />
    <rect
       style="fill:#ff0000;fill-rule:evenodd;stroke-width:0.264583"
       id="rect29659-1"
       width="17.864662"
       height="17.864662"
       x="-110.68802"
       y="414.38724"
       transform="scale(-1,1)" />
    <rect
       style="fill:#ff0000;fill-rule:evenodd;stroke-width:0.264583"
       id="rect66-23-5-2-7-1-3"
       width="17.864662"
       height="17.864662"
       x="-21.364777"
       y="-467.9812"
       transform="scale(-1)" />
    <path
       style="fill:none;stroke:#000000;stroke-width:3;stroke-linecap:butt;stroke-linejoin:miter;stroke-miterlimit:4;stroke-dasharray:none;stroke-opacity:1"
       d="m 182.14665,378.6579 v -17.86467 h 35.72931 v -17.86466 h 17.86467 v -17.86466 h -17.86466 v -17.86466 h -35.72932 l 1e-5,-35.72932 h -17.86467 v -17.86467 h -17.86465 v 17.86468 h -17.86465 v 35.72932 l -17.86466,1e-5 2e-5,-35.72933 H 92.82338 V 253.60529 H 74.95872 v 17.86466 H 57.09407 v 35.72933 H 21.36475 l -3e-5,17.86466 H 3.50008 v 17.86466 h 17.86467 v 17.86466 h 35.72932 l -6e-5,17.86466 H 21.3647 l -3e-5,17.86466 H 3.5 v 17.86466 h 17.86467 l 3e-5,17.86467 35.72937,-2e-5 v 35.72932 h 17.86465 v 17.86466 h 17.86466 v -17.86465 h 17.86467 l -2e-5,-35.72931 17.86466,-1e-5 v 35.72932 h 17.86465 v 17.86468 h 17.86465 v -17.86466 h 17.86467 l -1e-5,-35.72933 h 35.72932 v -17.86467 h 17.86467 v -17.86466 h -17.86466 l 1e-5,-17.86466 h -35.72933"
       id="path30042-5" />
    <path
       style="fill:none;stroke:#000000;stroke-width:3;stroke-linecap:butt;stroke-linejoin:miter;stroke-miterlimit:4;stroke-dasharray:none;stroke-opacity:1"
       d="m 289.33462,253.60528 h 53.59398 v 35.72935 h -17.86466"
       id="path33361" />
    <path
       style="fill:none;stroke:#000000;stroke-width:3;stroke-linecap:butt;stroke-linejoin:miter;stroke-miterlimit:4;stroke-dasharray:none;stroke-opacity:1"
       d="m 253.60525,289.33459 v 53.59398 h 35.72935 v -17.86466"
       id="path33361-8" />
    <rect
       style="fill:#ffffff;fill-rule:evenodd;stroke-width:0.264583"
       id="rect66-834-2-0-9"
       width="17.864662"
       height="17.864662"
       x="414.38724"
       y="414.38715" />
    <path
       style="fill:none;stroke:#000000;stroke-width:3;stroke-linecap:butt;stroke-linejoin:miter;stroke-miterlimit:4;stroke-dasharray:none;stroke-opacity:1"
       d="m 289.33462,289.33459 17.86463,17.86466"
       id="path34151" />
    <path
       style="fill:none;stroke:#000000;stroke-width:3;stroke-linecap:butt;stroke-linejoin:miter;stroke-miterlimit:4;stroke-dasharray:none;stroke-opacity:1"
       d="m 307.1993,378.65786 -2e-5,71.45861 h -17.8647 v 17.86467 h -17.86465 l -2e-5,17.86466 h -17.86466 l 5e-5,-71.45864 h 17.86466 l -1e-5,-17.86464 h 17.86468 v -17.86466 h 17.86467"
       id="path35981" />
    <path
       style="fill:none;stroke:#000000;stroke-width:3;stroke-linecap:butt;stroke-linejoin:miter;stroke-miterlimit:4;stroke-dasharray:none;stroke-opacity:1"
       d="m 325.06395,450.11647 -10e-6,-71.45861 h 17.86465 l 3e-5,17.86466 h 17.86465 v 17.86464 h 17.86466 l 6e-5,71.45864 h -17.86467 l -10e-6,-17.86466 h -17.86466 v -17.86467 z"
       id="path35983" />
    <path
       style="fill:none;stroke:#000000;stroke-width:3;stroke-linecap:butt;stroke-linejoin:miter;stroke-miterlimit:4;stroke-dasharray:none;stroke-opacity:1"
       d="m 378.6579,325.0639 v 17.86466 h 17.86464 l 5e-5,17.86469 h 17.86464 v 17.86465 l 71.45859,3e-5 v -17.86466 l -17.86464,10e-6 v -17.86466 l -17.86464,-6e-5 V 325.0639 Z"
       id="path35985" />
    <path
       style="fill:none;stroke:#000000;stroke-width:3;stroke-linecap:butt;stroke-linejoin:miter;stroke-miterlimit:4;stroke-dasharray:none;stroke-opacity:1"
       d="m 378.6579,307.19925 v -17.86466 h 17.86464 l 5e-5,-17.86469 h 17.86464 v -17.86465 l 71.45859,-3e-5 v 17.86466 l -17.86464,-10e-6 v 17.86466 l -17.86464,6e-5 v 17.86466 z"
       id="path35985-9" />
    <path
       style="fill:none;stroke:#000000;stroke-width:3;stroke-linecap:butt;stroke-linejoin:miter;stroke-miterlimit:4;stroke-dasharray:none;stroke-opacity:1"
       d="m 360.79324,360.79322 35.72934,35.72928"
       id="path36388" />
    <path
       style="fill:none;stroke:#000000;stroke-width:3;stroke-linecap:butt;stroke-linejoin:miter;stroke-miterlimit:4;stroke-dasharray:none;stroke-opacity:1"
       d="m 253.60531,378.65786 v -17.86464 h 17.86466 v 17.86464 h -17.86466"
       id="path36627" />
    <path
       style="fill:none;stroke:#000000;stroke-width:3;stroke-linecap:butt;stroke-linejoin:miter;stroke-miterlimit:4;stroke-dasharray:none;stroke-opacity:1"
       d="m 360.79326,271.46992 v -17.86464 h 17.86466 v 17.86464 h -17.86466"
       id="path36627-0" />
    <path
       style="fill:none;stroke:#000000;stroke-width:3;stroke-linecap:butt;stroke-linejoin:miter;stroke-miterlimit:4;stroke-dasharray:none;stroke-opacity:1"
       d="m 414.38727,450.11644 v 35.72928 h 17.86466"
       id="path36963" />
    <path
       style="fill:none;stroke:#000000;stroke-width:3;stroke-linecap:butt;stroke-linejoin:miter;stroke-miterlimit:4;stroke-dasharray:none;stroke-opacity:1"
       d="m 450.11655,414.38715 h 35.72928 v 17.86466"
       id="path36963-5" />
    <path
       style="fill:none;stroke:#000000;stroke-width:3;stroke-linecap:butt;stroke-linejoin:miter;stroke-miterlimit:4;stroke-dasharray:none;stroke-opacity:1"
       d="m 450.11662,450.11644 17.86453,17.8647 1.1e-4,17.86458 h -17.86464 l -5e-5,-17.86464"
       id="path37449" />
    <path
       style="fill:none;stroke:#000000;stroke-width:3;stroke-linecap:butt;stroke-linejoin:miter;stroke-miterlimit:4;stroke-dasharray:none;stroke-opacity:1"
       d="m 467.98126,467.98108 17.86456,6e-5 V 450.1165 l -17.86467,-3e-5"
       id="path37666" />
    <rect
       style="fill:#ffffff;fill-rule:evenodd;stroke-width:0.264583"
       id="rect66-834-2-0-8"
       width="17.864662"
       height="17.864662"
       x="-164.28201"
       y="-164.28201"
       transform="scale(-1)" />
    <path
       style="fill:none;stroke:#000000;stroke-width:3;stroke-linecap:butt;stroke-linejoin:miter;stroke-miterlimit:4;stroke-dasharray:none;stroke-opacity:1"
       d="m 200.0113,235.74063 h -53.59398 v -35.72935 h 17.86466"
       id="path33361-0" />
    <path
       style="fill:none;stroke:#000000;stroke-width:3;stroke-linecap:butt;stroke-linejoin:miter;stroke-miterlimit:4;stroke-dasharray:none;stroke-opacity:1"
       d="M 235.74066,200.01132 V 146.41734 H 200.01132 V 164.282"
       id="path33361-8-0" />
    <rect
       style="fill:#ffffff;fill-rule:evenodd;stroke-width:0.264583"
       id="rect66-834-2-0-9-7"
       width="17.864662"
       height="17.864662"
       x="-74.958649"
       y="-74.958763"
       transform="scale(-1)" />
    <path
       id="rect66-23-0-2-7-5-8"
       style="fill:#000000;fill-rule:evenodd;stroke-width:0.264583;fill-opacity:1"
       transform="scale(-1)"
       d="m -57.093956,-57.094105 h 17.864662 v 17.864662 h -17.864662 z m -17.864693,0 h 17.864662 v 17.864662 h -17.864662 z m -17.864685,0 h 17.864662 v 17.864662 h -17.864662 z m 35.729317,-35.729313 h 17.864662 v 17.864663 h -17.864662 z m -17.864632,0 h 17.864662 v 17.864663 h -17.864662 z m -17.864685,0 h 17.864662 v 17.864663 h -17.864662 z m 35.729317,17.864655 h 17.864662 v 17.864662 h -17.864662 z m -35.729317,0 h 17.864662 v 17.864662 h -17.864662 z m -53.593996,-71.458577 h 17.86466 v 17.86466 h -17.86466 z m -17.86465,0 h 17.86466 v 17.86466 h -17.86466 z m -17.86469,0 h 17.86466 v 17.86466 h -17.86466 z m 35.72931,-35.72931 h 17.86466 v 17.86466 h -17.86466 z m -17.86465,0 h 17.86466 v 17.86466 h -17.86466 z m -17.86469,0 h 17.86466 v 17.86466 h -17.86466 z m 35.72934,17.86464 h 17.86466 v 17.86466 h -17.86466 z m -35.72934,0 h 17.86466 v 17.86466 H -182.1467 Z M -432.25195,-432.2518 h -17.86467 v -17.86466 h 17.86467 z m 17.86468,0 h -17.86466 v -17.86466 h 17.86466 z m 17.86469,0 h -17.86467 v -17.86466 h 17.86467 z m -35.72931,35.72931 h -17.86466 v -17.86466 h 17.86466 z m 17.86465,0 h -17.86466 v -17.86466 h 17.86466 z m 17.86466,0 h -17.86467 v -17.86466 h 17.86467 z m -35.72931,-17.86466 h -17.86466 v -17.86466 h 17.86466 z m 35.72931,0 h -17.86467 v -17.86466 h 17.86467 z m 53.59402,71.45859 h -17.86466 v -17.86466 h 17.86466 z m 17.86466,0 h -17.86467 v -17.86466 h 17.86467 z m 17.86465,0 h -17.86466 v -17.86466 h 17.86466 z m -35.72931,35.72931 h -17.86466 v -17.86466 h 17.86466 z m 17.86466,0 h -17.86467 v -17.86466 h 17.86467 z m 17.86468,0 h -17.86466 v -17.86466 h 17.86466 z m 267.9698,-142.9173 v -35.72932 h 17.86467 v 17.86466 h 17.86464 v 17.86466 z m 2.7e-5,-35.72931 h 17.864662 v 17.86467 h -17.864662 z m 0,17.86466 h 17.864662 v 17.86466 h -17.864662 z m -71.458627,53.59396 h 17.864663 v -17.86466 h -17.864663 z m -17.86465,0 h 17.86466 v -17.86466 h -17.86466 z m 17.86462,-35.72931 h 17.864663 v -17.86466 h -17.864663 z m 35.72934,0 h 17.864662 v -17.86466 H -74.95871 Z m -17.864685,-17.86465 h 17.864662 v -17.86466 h -17.864662 z m 0,17.86465 h 17.864662 v -17.86466 h -17.864662 z m -17.864625,17.86466 h 17.864663 v -17.86466 h -17.864663 z m 17.864625,17.86468 h 17.864662 v -17.86466 h -17.864662 z m 17.864685,-17.86468 h 17.864662 v -17.86466 H -74.95871 Z m -17.864685,0 h 17.864662 v -17.86466 h -17.864662 z m -89.323275,-17.86469 h 17.86466 v -17.86466 h -17.86466 z m 35.72934,3e-5 h 17.86466 v -17.86466 h -17.86466 z m -17.86465,-17.86468 h 17.86466 v -17.86466 h -17.86466 z m 0,17.86468 h 17.86466 v -17.86466 h -17.86466 z m 89.32327,35.72934 h 17.864662 v -17.86466 H -74.95871 Z m -107.18796,-3e-5 h 17.86466 v -17.86466 h -17.86466 z m 0,-17.86465 h 17.86466 v -17.86466 h -17.86466 z m 35.72934,17.86465 h 17.86466 v -17.86466 h -17.86466 z m -17.86465,0 h 17.86466 v -17.86466 h -17.86466 z m 17.86465,-17.86465 h 17.86466 v -17.86466 h -17.86466 z m -17.86465,0 h 17.86466 v -17.86466 h -17.86466 z m 35.72931,53.59396 h 17.86466 v 17.86466 h -17.86466 z m 89.323338,-35.72931 h 17.864662 v 17.86466 h -17.864662 z m 17.864677,0 h 17.8646626 v 17.86466 H -21.364655 Z m -53.593994,0 h 17.864662 v 17.86466 h -17.864662 z m 17.864632,0 h 17.864662 v 17.86466 h -17.864662 z m 17.864685,17.86466 h 17.864662 v 17.86466 h -17.864662 z m -35.729317,0 h 17.864662 v 17.86466 h -17.864662 z m 17.864632,0 h 17.864662 v 17.86466 h -17.864662 z m 0,-35.72931 h 17.864662 v 17.86466 h -17.864662 z m 17.864685,0 h 17.864662 v 17.86466 h -17.864662 z m -6.1e-5,89.3233 h 17.864662 v 17.86466 h -17.864662 z m 17.864677,0 h 17.8646626 v 17.86466 H -21.364716 Z m -53.593994,0 h 17.864662 v 17.86466 H -74.95871 Z m 17.864632,0 h 17.864662 v 17.86466 h -17.864662 z m -142.917242,-71.45865 h 17.86466 v 17.86466 h -17.86466 z m 17.86465,0 h 17.86466 v 17.86466 h -17.86466 z m -53.59399,0 h 17.86466 v 17.86466 h -17.86466 z m 17.86465,0 h 17.86467 v 17.86466 h -17.86467 z m 3e-5,-17.86465 h 17.86467 v 17.86466 h -17.86467 z m 17.86466,0 h 17.86466 v 17.86466 h -17.86466 z m -17.86469,35.72931 h 17.86467 v 17.86466 h -17.86467 z m 17.86469,0 h 17.86466 v 17.86466 h -17.86466 z m 17.86465,0 h 17.86466 v 17.86466 h -17.86466 z m -17.86465,53.59402 h 17.86466 v 17.86466 h -17.86466 z m 17.86465,0 h 17.86466 v 17.86466 h -17.86466 z m -53.59396,0 h 17.86466 v 17.86466 h -17.86466 z m 17.86465,0 h 17.86467 v 17.86466 h -17.86467 z m 107.18796,17.86466 h 17.864663 v 17.86466 h -17.864663 z m -17.86465,0 h 17.86466 v 17.86466 h -17.86466 z m 17.86462,35.72931 h 17.864663 v 17.86466 h -17.864663 z m 35.72934,0 h 17.864662 v 17.86466 H -74.95871 Z m -17.864685,17.86465 h 17.864662 v 17.86466 h -17.864662 z m 0,-17.86465 h 17.864662 v 17.86466 h -17.864662 z m -17.864625,-17.86466 h 17.864663 v 17.86466 h -17.864663 z m 71.458627,-17.86468 h 17.864662 v 17.86466 h -17.864662 z m -53.594002,0 h 17.864662 v 17.86466 h -17.864662 z m 17.864685,17.86465 h 17.864662 v 17.86466 H -74.95871 Z m -17.864685,0 h 17.864662 v 17.86466 h -17.864662 z m -89.323275,17.86469 h 17.86466 v 17.86466 h -17.86466 z m 35.72934,0 h 17.86466 v 17.86466 h -17.86466 z m -17.86465,17.86468 h 17.86466 v 17.86466 h -17.86466 z m 0,-17.86468 h 17.86466 v 17.86466 h -17.86466 z m 89.32327,-35.72934 h 17.864662 v 17.86466 H -74.95871 Z m 17.864632,0 h 17.864662 v 17.86466 h -17.864662 z m -17.864632,-35.72934 h 17.864662 v 17.86466 H -74.95871 Z m 17.864632,0 h 17.864662 v 17.86466 h -17.864662 z m 17.864685,0 h 17.864662 v 17.86466 h -17.864662 z m -178.646587,3e-5 h 17.86467 v 17.86466 h -17.86467 z m 17.86466,0 h 17.86466 v 17.86466 h -17.86466 z m 125.05261,-17.86469 h 17.864662 v 17.86466 H -74.95871 Z m -107.18796,3e-5 h 17.86466 v 17.86466 h -17.86466 z m 0,17.86466 h 17.86466 v 17.86466 h -17.86466 z m -35.72931,35.72934 h 17.86467 v 17.86466 h -17.86467 z m 17.86466,0 h 17.86466 v 17.86466 h -17.86466 z m 17.86465,0 h 17.86466 v 17.86466 h -17.86466 z m 0,17.86465 h 17.86466 v 17.86466 h -17.86466 z m 35.72934,-17.86465 h 17.86466 v 17.86466 h -17.86466 z m -17.86465,0 h 17.86466 v 17.86466 h -17.86466 z m 17.86465,17.86465 h 17.86466 v 17.86466 h -17.86466 z m -17.86465,0 h 17.86466 v 17.86466 h -17.86466 z m -303.69919,285.834559 h -17.86466 v -17.864662 h 17.86466 z m 17.86465,17.8646631 h -17.86466 V -21.36469 h 17.86466 z m 0,-17.8646631 h -17.86466 v -17.864662 h 17.86466 z m 71.45862,-53.593965 h -17.86466 v 17.864662 h 17.86466 z m 17.86466,0 h -17.86467 v 17.864662 h 17.86467 z m -17.86463,35.729328 h -17.86466 v 17.864662 h 17.86466 z m -35.72934,-1.5e-5 h -17.86466 v 17.864662 h 17.86466 z m 17.86466,17.864652 h -17.86466 v 17.8646624 h 17.86466 z m 0,-17.864652 h -17.86466 v 17.864662 h 17.86466 z m 17.86465,-17.864655 h -17.86466 v 17.864662 h 17.86466 z m -17.86465,-17.864674 h -17.86466 v 17.864663 h 17.86466 z m -17.86466,17.864666 h -17.86466 v 17.864663 h 17.86466 z m 17.86466,0 h -17.86466 v 17.864663 h 17.86466 z m 89.3233,17.864685 h -17.86466 v 17.864663 h 17.86466 z m -35.72931,-7e-6 h -17.86466 v 17.864662 h 17.86466 z m 17.86466,17.864668 h -17.86467 v 17.8646619 h 17.86467 z m 0,-17.864668 h -17.86467 v 17.864662 h 17.86467 z m -89.32331,-35.729344 h -17.86466 v 17.864663 h 17.86466 z m 107.18796,3.1e-5 h -17.86466 v 17.864662 h 17.86466 z m 0,17.864658 h -17.86466 v 17.864662 h 17.86466 z m -35.72931,-17.864673 h -17.86466 v 17.864662 h 17.86466 z m 17.86466,1.5e-5 h -17.86467 v 17.864662 h 17.86467 z m -17.86466,17.864651 h -17.86466 v 17.864662 h 17.86466 z m 17.86466,0 h -17.86467 v 17.864662 h 17.86467 z m -35.72934,-53.59399 h -17.86467 v -17.86466 h 17.86467 z m -89.32334,35.729324 h -17.86466 v -17.864662 h 17.86466 z m -17.86468,0 h -17.86466 v -17.864662 h 17.86466 z m 53.59402,0 h -17.86466 v -17.864662 h 17.86466 z m -17.86465,0 h -17.86466 v -17.864662 h 17.86466 z m -17.86469,-17.864662 h -17.86466 v -17.864662 h 17.86466 z m 35.72934,0 h -17.86466 v -17.864662 h 17.86466 z m -17.86465,0 h -17.86466 v -17.864662 h 17.86466 z m 0,35.729328 h -17.86466 v -17.864662 h 17.86466 z m -17.86469,0 h -17.86466 v -17.864662 h 17.86466 z m 6e-5,-89.32329 h -17.86466 v -17.86466 h 17.86466 z m -17.86468,0 h -17.86466 v -17.86466 h 17.86466 z m 53.59399,0 h -17.86466 v -17.86466 h 17.86466 z m -17.86465,0 h -17.86466 v -17.86466 h 17.86466 z m 142.91727,71.458624 h -17.86467 v -17.864662 h 17.86467 z m -17.86466,0 h -17.86466 v -17.864662 h 17.86466 z m 53.59396,0 h -17.86466 v -17.864662 h 17.86466 z m -17.86462,0 h -17.86466 v -17.864662 h 17.86466 z m -3e-5,17.864666 h -17.86466 v -17.864662 h 17.86466 z m -17.86465,0 h -17.86467 v -17.864662 h 17.86467 z m 17.86468,-35.729328 h -17.86466 v -17.864662 h 17.86466 z m -17.86468,0 h -17.86467 v -17.864662 h 17.86467 z m -17.86466,0 h -17.86466 v -17.864662 h 17.86466 z m 17.86466,-53.593992 h -17.86467 v -17.86466 h 17.86467 z m -17.86466,0 h -17.86466 v -17.86466 h 17.86466 z m 53.59393,0 h -17.86466 v -17.86466 h 17.86466 z m -17.86462,0 h -17.86466 v -17.86466 h 17.86466 z m -107.18796,-17.86466 h -17.86466 v -17.86466 h 17.86466 z m 17.86466,0 h -17.86467 v -17.86466 h 17.86467 z m -17.86463,-35.72932 h -17.86466 v -17.86466 h 17.86466 z m -35.72934,1e-5 h -17.86466 v -17.86466 h 17.86466 z m 17.86466,-17.86465 h -17.86466 v -17.86466 h 17.86466 z m 0,17.86465 h -17.86466 v -17.86466 h 17.86466 z m 17.86465,17.86466 h -17.86466 v -17.86466 h 17.86466 z m -71.45862,17.86467 h -17.86466 v -17.86466 h 17.86466 z m 53.59397,0 h -17.86466 v -17.86466 h 17.86466 z m -17.86466,-17.86466 h -17.86466 v -17.86466 h 17.86466 z m 17.86466,0 h -17.86466 v -17.86466 h 17.86466 z m 89.3233,-17.86468 h -17.86466 v -17.86466 h 17.86466 z m -35.72931,0 h -17.86466 v -17.86466 h 17.86466 z m 17.86466,-17.86467 h -17.86467 v -17.86466 h 17.86467 z m 0,17.86467 h -17.86467 v -17.86466 h 17.86467 z m -89.32331,35.72934 h -17.86466 v -17.86466 h 17.86466 z m -17.86465,0 h -17.86466 v -17.86466 h 17.86466 z m 17.86468,35.72931 h -17.86466 v -17.86466 h 17.86466 z m -17.86465,0 h -17.86466 v -17.86466 h 17.86466 z m -17.86469,0 h -17.86466 v -17.86466 h 17.86466 z m 178.64658,-3e-5 h -17.86466 v -17.86467 h 17.86466 z m -17.86465,0 h -17.86467 v -17.86467 h 17.86467 z m -125.05262,17.86469 h -17.86466 v -17.86466 h 17.86466 z m 107.18796,-2e-5 h -17.86466 v -17.86467 h 17.86466 z m 0,-17.86467 h -17.86466 v -17.86467 h 17.86466 z m 35.72931,-35.72931 h -17.86466 v -17.86466 h 17.86466 z m -17.86465,0 h -17.86467 v -17.86466 h 17.86467 z m -17.86466,0 h -17.86466 v -17.86466 h 17.86466 z m 0,-17.86466 h -17.86466 v -17.86466 h 17.86466 z m 35.72931,-71.45865 h -17.86466 v -17.86466 h 17.86466 z m 0,17.86466 h -17.86466 v -17.86466 h 17.86466 z m 0,17.86467 h -17.86466 v -17.86466 h 17.86466 z m -71.45862,-107.18794 h -17.86466 v -17.86467 h 17.86466 z m 35.72934,0 h -17.86466 v -17.86467 h 17.86466 z m 35.72928,53.59396 h -17.86466 v -17.86466 h 17.86466 z m 17.86462,0 h -17.86466 v -17.86466 h 17.86466 z m 17.86469,0 h -17.86466 v -17.86466 h 17.86466 z m 17.86465,0 h -17.86466 v -17.86466 h 17.86466 z m 17.86466,0 h -17.86466 v -17.86466 h 17.86466 z m -142.91724,107.18797 h -17.86466 v -17.86466 h 17.86466 z m 17.86466,-1e-5 h -17.86467 v -17.86466 h 17.86467 z m -17.86466,-17.86464 h -17.86466 v -17.86466 h 17.86466 z m 17.86466,0 h -17.86467 v -17.86466 h 17.86467 z m 53.59396,-17.86467 h -17.86466 v -17.86466 h 17.86466 z m 17.86462,0 h -17.86466 v -17.86466 h 17.86466 z m 17.86469,-2e-5 h -17.86466 v -17.86466 h 17.86466 z m 17.86465,0 h -17.86466 v -17.86466 h 17.86466 z m 17.86466,0 h -17.86466 v -17.86466 h 17.86466 z m 0,-17.86465 h -17.86466 v -17.86466 h 17.86466 z m 0,-17.86467 h -17.86466 v -17.86466 h 17.86466 z m 0,-17.86464 h -17.86466 v -17.86466 h 17.86466 z m -17.86466,-2e-5 h -17.86466 v -17.86466 h 17.86466 z m 0,35.72933 h -17.86466 v -17.86466 h 17.86466 z m -35.72934,-35.72933 h -17.86466 v -17.86466 h 17.86466 z m 0,35.72933 h -17.86466 v -17.86466 h 17.86466 z m 17.86469,-17.86467 h -17.86466 v -17.86466 h 17.86466 z" />
    <path
       style="fill:none;stroke:#000000;stroke-width:3;stroke-linecap:butt;stroke-linejoin:miter;stroke-miterlimit:4;stroke-dasharray:none;stroke-opacity:1"
       d="M 200.01131,200.01131 182.14668,182.14666"
       id="path34151-1" />
    <path
       id="rect66-23-0-2-7-8-2-7-7-3"
       style="fill:#00d455;fill-rule:evenodd;stroke-width:0.264583;fill-opacity:1"
       d="m 39.22938,146.41735 v 17.86466 H 57.09404 V 146.41735 Z M 3.5001,110.68798 v 17.86466 h 17.86466 v -17.86466 z m 17.86465,17.86465 v 17.86466 h 17.86466 v -17.86466 z m 0,-17.86465 v 17.86466 h 17.86466 v -17.86466 z m 17.86463,0 v 17.86466 h 17.86466 v -17.86466 z m 17.86465,3e-5 v 17.86466 h 17.86465 v -17.86466 z m -17.86465,17.86462 v 17.86466 h 17.86466 v -17.86466 z m 35.72928,3e-5 v 17.86466 h 17.86467 v -17.86466 z m -17.86463,0 v 17.86466 h 17.86465 v -17.86466 z m 3e-5,17.86469 v 17.86466 h 17.86465 v -17.86466 z m 35.72931,0 v 17.86466 h 17.86466 v -17.86466 z m -17.86466,0 v 17.86466 H 92.82338 V 146.41735 Z M 164.28198,57.094074 H 146.41732 V 39.229412 h 17.86466 z M 128.55261,21.364752 H 110.68795 V 3.5000896 h 17.86466 z M 146.41727,39.22942 H 128.5526 V 21.364758 h 17.86467 z m -17.86466,0 H 110.68795 V 21.364758 h 17.86466 z m 0,17.864654 H 110.68795 V 39.229412 h 17.86466 z m 3e-5,17.864659 H 110.68798 V 57.09407 h 17.86466 z M 146.41727,57.094074 H 128.5526 V 39.229412 h 17.86467 z m 3e-5,35.729313 H 128.55264 V 74.958725 h 17.86466 z m 0,-17.864654 H 128.55264 V 57.09407 h 17.86466 z m 17.86468,0 H 146.41732 V 57.09407 h 17.86466 z m 0,35.729317 H 146.41732 V 92.823387 h 17.86466 z m 0,-17.864663 H 146.41732 V 74.958725 h 17.86466 z M 450.11654,342.92856 V 325.0639 h -17.86466 v 17.86466 z m 35.72928,35.72937 v -17.86466 h -17.86466 v 17.86466 z m -17.86465,-17.86465 v -17.86466 h -17.86466 v 17.86466 z m 0,17.86465 v -17.86466 h -17.86466 v 17.86466 z m -17.86463,0 v -17.86466 h -17.86466 v 17.86466 z m -17.86465,-3e-5 v -17.86466 h -17.86466 v 17.86466 z m 17.86465,-17.86462 v -17.86466 h -17.86466 v 17.86466 z m -35.72929,-3e-5 v -17.86466 h -17.86466 v 17.86466 z m 17.86464,0 v -17.86466 h -17.86466 v 17.86466 z m -3e-5,-17.86469 V 325.0639 H 414.3872 v 17.86466 z m -35.72931,0 V 325.0639 h -17.86466 v 17.86466 z m 17.86465,0 V 325.0639 h -17.86466 v 17.86466 z m -89.32327,89.32327 h 17.86467 v 17.86466 h -17.86467 z m 35.72937,35.72931 h 17.86467 V 485.8458 H 360.7933 Z m -17.86468,-17.86465 h 17.86466 v 17.86466 h -17.86466 z m 17.86468,0 h 17.86467 v 17.86466 H 360.7933 Z m 0,-17.86466 h 17.86467 v 17.86466 H 360.7933 Z m -3e-5,-17.86465 h 17.86467 v 17.86466 h -17.86467 z m -17.86465,17.86465 h 17.86466 v 17.86466 h -17.86466 z m -3e-5,-35.72931 h 17.86466 v 17.86466 h -17.86466 z m 0,17.86466 h 17.86466 v 17.86466 h -17.86466 z m -17.86466,0 h 17.86467 v 17.86466 h -17.86467 z m -3e-5,-35.72931 h 17.86467 v 17.86466 H 325.0639 Z m 0,17.86465 h 17.86467 v 17.86466 H 325.0639 Z" />
    <path
       id="rect66-23-0-2-7-8-2-7-78-7"
       style="fill:#37c871;fill-rule:evenodd;stroke-width:0.264583;fill-opacity:1"
       d="m 57.09401,235.7407 v -17.86469 h 17.86467 v 17.86469 z m 35.72932,-35.72939 v -17.86467 h 17.86465 v 17.86467 z m -17.86465,17.86466 v -17.86466 h 17.86465 v 17.86466 z m 0,-17.86466 v -17.86467 h 17.86465 v 17.86467 z m -17.86467,0 v -17.86467 h 17.86467 v 17.86467 z m -17.86465,3e-5 v -17.86467 h 17.86466 v 17.86467 z m 17.86466,17.86462 V 200.0113 h 17.86466 v 17.86466 z m -35.72932,4e-5 V 200.01133 H 39.22937 V 217.876 Z m 17.86467,0 V 200.01133 H 57.09403 V 217.876 Z m 0,17.86468 v -17.86467 h 17.86466 v 17.86467 z m -35.72931,0 V 217.87601 H 21.3647 v 17.86467 z m 17.86464,0 v -17.86467 h 17.86467 v 17.86467 z M 182.14667,57.094074 h 17.86466 V 39.229412 H 182.14667 Z M 217.87604,21.364752 H 235.7407 V 3.5000896 H 217.87604 Z M 200.01135,39.22942 h 17.86466 V 21.364758 h -17.86466 z m 17.86466,0 h 17.86466 V 21.364758 h -17.86466 z m 0,17.864654 h 17.86466 V 39.229412 h -17.86466 z m -3e-5,17.864659 h 17.86466 V 57.09407 H 217.87598 Z M 200.01135,57.094074 h 17.86466 V 39.229412 h -17.86466 z m -3e-5,35.729313 h 17.86466 V 74.958725 h -17.86466 z m 0,-17.864654 h 17.86466 V 57.09407 h -17.86466 z m -17.86465,0 h 17.86466 V 57.09407 h -17.86466 z m -3e-5,35.729317 H 200.0113 V 92.823387 h -17.86466 z m 0,-17.864663 H 200.0113 V 74.958725 H 182.14664 Z M 432.25191,253.60521 v 17.86469 h -17.86468 v -17.86469 z m -35.72932,35.72939 v 17.86467 H 378.65794 V 289.3346 Z m 17.86464,-17.86466 v 17.86466 h -17.86464 v -17.86466 z m 0,17.86466 v 17.86467 H 396.52259 V 289.3346 Z m 17.86468,0 v 17.86467 H 414.38723 V 289.3346 Z m 17.86465,-3e-5 v 17.86467 H 432.2519 V 289.33457 Z M 432.2519,271.46995 v 17.86466 h -17.86467 v -17.86466 z m 35.72932,-4e-5 v 17.86467 h -17.86467 v -17.86467 z m -17.86467,0 v 17.86467 h -17.86466 v -17.86467 z m 0,-17.86468 v 17.86467 h -17.86466 v -17.86467 z m 35.72931,0 v 17.86467 h -17.86464 v -17.86467 z m -17.86464,0 v 17.86467 h -17.86467 v -17.86467 z m -160.78197,178.6466 h -17.86466 v 17.86466 h 17.86466 z m -35.72937,35.72931 h -17.86466 v 17.86466 h 17.86466 z m 17.86468,-17.86465 H 271.4699 v 17.86466 h 17.86466 z m -17.86465,0 h -17.86466 v 17.86466 h 17.86466 z m 0,-17.86466 h -17.86466 v 17.86466 h 17.86466 z m 3e-5,-17.86465 h -17.86466 v 17.86466 h 17.86466 z m 17.86462,17.86465 H 271.4699 v 17.86466 h 17.86466 z m 3e-5,-35.72931 h -17.86466 v 17.86466 h 17.86466 z m 0,17.86466 h -17.86466 v 17.86466 h 17.86466 z m 17.86466,0 h -17.86466 v 17.86466 h 17.86466 z m 3e-5,-35.72931 h -17.86466 v 17.86466 h 17.86466 z m 0,17.86465 h -17.86466 v 17.86466 h 17.86466 z" />
    <path
       style="fill:none;stroke:#000000;stroke-width:3;stroke-linecap:butt;stroke-linejoin:miter;stroke-miterlimit:4;stroke-dasharray:none;stroke-opacity:1"
       d="m 182.14662,110.68805 2e-5,-71.458611 h 17.8647 V 21.36477 h 17.86464 l 2e-5,-17.86466 h 17.86466 l -5e-5,71.458639 h -17.86466 l 1e-5,17.86464 h -17.86467 v 17.864661 h -17.86467"
       id="path35981-3" />
    <path
       style="fill:none;stroke:#000000;stroke-width:3;stroke-linecap:butt;stroke-linejoin:miter;stroke-miterlimit:4;stroke-dasharray:none;stroke-opacity:1"
       d="m 164.28197,39.229439 1e-5,71.458611 h -17.86465 l -3e-5,-17.864661 h -17.86465 v -17.86464 h -17.86466 l -6e-5,-71.458639 h 17.86467 l 10e-6,17.86466 h 17.86466 v 17.864669 z"
       id="path35983-7" />
    <path
       style="fill:none;stroke:#000000;stroke-width:3;stroke-linecap:butt;stroke-linejoin:miter;stroke-miterlimit:4;stroke-dasharray:none;stroke-opacity:1"
       d="M 110.68802,164.28201 V 146.41735 H 92.82338 l -5e-5,-17.86469 H 74.95868 v -17.86465 l -71.45858,-3e-5 v 17.86466 l 17.86464,-1e-5 v 17.86466 l 17.86464,6e-5 v 17.86466 z"
       id="path35985-95" />
    <path
       style="fill:none;stroke:#000000;stroke-width:3;stroke-linecap:butt;stroke-linejoin:miter;stroke-miterlimit:4;stroke-dasharray:none;stroke-opacity:1"
       d="m 110.68802,182.14666 v 17.86466 H 92.82338 l -5e-5,17.86469 H 74.95868 v 17.86465 l -71.45858,3e-5 v -17.86466 l 17.86464,1e-5 v -17.86466 l 17.86464,-6e-5 v -17.86466 z"
       id="path35985-9-6" />
    <path
       style="fill:none;stroke:#000000;stroke-width:3;stroke-linecap:butt;stroke-linejoin:miter;stroke-miterlimit:4;stroke-dasharray:none;stroke-opacity:1"
       d="M 128.55268,128.55269 92.82334,92.823409"
       id="path36388-9" />
    <path
       style="fill:none;stroke:#000000;stroke-width:3;stroke-linecap:butt;stroke-linejoin:miter;stroke-miterlimit:4;stroke-dasharray:none;stroke-opacity:1"
       d="m 235.7406,110.68805 v 17.86464 h -17.86466 v -17.86464 h 17.86466"
       id="path36627-2" />
    <path
       style="fill:none;stroke:#000000;stroke-width:3;stroke-linecap:butt;stroke-linejoin:miter;stroke-miterlimit:4;stroke-dasharray:none;stroke-opacity:1"
       d="m 128.55266,217.87599 v 17.86464 H 110.688 v -17.86464 h 17.86466"
       id="path36627-0-9" />
    <path
       style="fill:none;stroke:#000000;stroke-width:3;stroke-linecap:butt;stroke-linejoin:miter;stroke-miterlimit:4;stroke-dasharray:none;stroke-opacity:1"
       d="M 74.95864,39.229469 V 3.50019 H 57.09399"
       id="path36963-1" />
    <path
       style="fill:none;stroke:#000000;stroke-width:3;stroke-linecap:butt;stroke-linejoin:miter;stroke-miterlimit:4;stroke-dasharray:none;stroke-opacity:1"
       d="M 39.22937,74.958759 H 3.50009 v -17.86466"
       id="path36963-5-4" />
    <path
       style="fill:none;stroke:#000000;stroke-width:3;stroke-linecap:butt;stroke-linejoin:miter;stroke-miterlimit:4;stroke-dasharray:none;stroke-opacity:1"
       d="M 39.2293,39.229469 21.36477,21.36477 21.36466,3.50019 H 39.2293 l 5e-5,17.86464"
       id="path37449-8" />
    <path
       style="fill:none;stroke:#000000;stroke-width:3;stroke-linecap:butt;stroke-linejoin:miter;stroke-miterlimit:4;stroke-dasharray:none;stroke-opacity:1"
       d="m 21.36466,21.36483 -17.86456,-6e-5 v 17.864639 l 17.86467,3e-5"
       id="path37666-0" />
    <path
       style="fill:none;stroke:#000000;stroke-width:3;stroke-linecap:butt;stroke-linejoin:miter;stroke-miterlimit:4;stroke-dasharray:none;stroke-opacity:1"
       d="m 378.6579,307.19925 v -17.86466 h 17.86464 l 5e-5,-17.86469 h 17.86464 v -17.86465 l 71.45859,-3e-5 v 17.86466 l -17.86464,-10e-6 v 17.86466 l -17.86464,6e-5 v 17.86466 z"
       id="path35985-9-3" />
    <path
       style="fill:none;stroke:#000000;stroke-width:3;stroke-linecap:butt;stroke-linejoin:miter;stroke-miterlimit:4;stroke-dasharray:none;stroke-opacity:1"
       d="m 378.6579,325.0639 v 17.86466 h 17.86464 l 5e-5,17.86469 h 17.86464 v 17.86465 l 71.45859,3e-5 v -17.86466 l -17.86464,10e-6 v -17.86466 l -17.86464,-6e-5 V 325.0639 Z"
       id="path35985-9-3-3" />
    <path
       style="fill:none;stroke:#000000;stroke-width:3;stroke-linecap:butt;stroke-linejoin:miter;stroke-miterlimit:4;stroke-dasharray:none;stroke-opacity:1"
       d="m 325.0639,378.65785 h 17.86466 v 17.86464 l 17.86469,5e-5 v 17.86464 h 17.86465 l 3e-5,71.45859 h -17.86466 l 10e-6,-17.86464 h -17.86466 l -6e-5,-17.86464 H 325.0639 Z"
       id="path35985-9-3-4" />
    <path
       style="fill:none;stroke:#000000;stroke-width:3;stroke-linecap:butt;stroke-linejoin:miter;stroke-miterlimit:4;stroke-dasharray:none;stroke-opacity:1"
       d="m 307.19929,378.65786 h -17.86466 v 17.86464 l -17.86469,5e-5 v 17.86464 h -17.86465 l -3e-5,71.45859 h 17.86466 l -10e-6,-17.86464 h 17.86467 l 6e-5,-17.86464 h 17.86466 z"
       id="path35985-9-3-1" />
    <path
       style="fill:none;stroke:#000000;stroke-width:3;stroke-linecap:butt;stroke-linejoin:miter;stroke-miterlimit:4;stroke-dasharray:none;stroke-opacity:1"
       d="m 307.19929,110.68801 v 17.86466 h -35.72931 v 17.86466 H 253.60531 V 164.282 h 17.86466 v 17.86466 h 35.72932 l -1e-5,35.72931 h 17.86467 v 17.86467 h 17.86465 v -17.86468 h 17.86465 v -35.72932 h 17.86466 l -2e-5,35.72932 h 17.86467 v 17.86465 h 17.86466 v -17.86466 h 17.86465 v -35.72932 h 35.72932 l 3e-5,-17.86466 h 17.86464 v -17.86466 h -17.86467 v -17.86467 h -35.72932 l 6e-5,-17.86465 h 35.72931 l 3e-5,-17.86467 h 17.86467 V 74.958661 h -17.86467 l -3e-5,-17.864662 -35.72937,1.7e-5 V 21.364699 H 414.38722 V 3.50004 h -17.86466 v 17.864639 h -17.86467 l 2e-5,35.72932 -17.86466,6e-6 V 21.364679 H 342.9286 V 3.50001 h -17.86465 v 17.864659 h -17.86467 l 1e-5,35.72933 H 271.46997 V 74.958661 H 253.6053 V 92.82332 h 17.86466 l -1e-5,17.86467 h 35.72933"
       id="path30042-7" />
    <path
       style="fill:none;stroke:#000000;stroke-width:3;stroke-linecap:butt;stroke-linejoin:miter;stroke-miterlimit:4;stroke-dasharray:none;stroke-opacity:1"
       d="m 57.09398,360.79326 v 17.86466 H 21.36467 v 17.86466 H 3.5 v 17.86467 h 17.86466 v 17.86466 h 35.72932 l -1e-5,35.72931 h 17.86467 v 17.86467 h 17.86465 v -17.86468 h 17.86465 v -35.72932 h 17.86466 l -2e-5,35.72932 h 17.86467 v 17.86465 h 17.86466 V 467.9812 h 17.86465 v -35.72932 h 35.72932 l 3e-5,-17.86466 h 17.86464 v -17.86466 h -17.86467 v -17.86467 h -35.72932 l 6e-5,-17.86465 h 35.72931 l 3e-5,-17.86467 h 17.86467 v -17.86466 h -17.86467 l -3e-5,-17.86466 -35.72937,2e-5 v -35.72932 h -17.86465 v -17.86466 h -17.86466 v 17.86464 h -17.86467 l 2e-5,35.72932 -17.86466,10e-6 V 271.46993 H 92.82329 V 253.60526 H 74.95864 v 17.86466 H 57.09397 l 1e-5,35.72933 H 21.36466 v 17.86466 H 3.49999 v 17.86466 h 17.86466 l -10e-6,17.86467 h 35.72933"
       id="path30042-8" />
  </g>
</svg>
