<?xml version="1.0" encoding="UTF-8" standalone="no"?>
<!-- Created with Inkscape (http://www.inkscape.org/) -->

<svg
   width="490mm"
   height="490mm"
   viewBox="0 0 490 490"
   version="1.1"
   id="svg47918"
   inkscape:version="1.1.2 (b8e25be833, 2022-02-05)"
   sodipodi:docname="logo_klarna.svg"
   xmlns:inkscape="http://www.inkscape.org/namespaces/inkscape"
   xmlns:sodipodi="http://sodipodi.sourceforge.net/DTD/sodipodi-0.dtd"
   xmlns="http://www.w3.org/2000/svg"
   xmlns:svg="http://www.w3.org/2000/svg">
  <sodipodi:namedview
     id="namedview47920"
     pagecolor="#ffffff"
     bordercolor="#666666"
     borderopacity="1.0"
     inkscape:pageshadow="2"
     inkscape:pageopacity="0.0"
     inkscape:pagecheckerboard="0"
     inkscape:document-units="mm"
     showgrid="false"
     inkscape:zoom="0.088862584"
     inkscape:cx="1699.2529"
     inkscape:cy="28.133325"
     inkscape:window-width="1920"
     inkscape:window-height="991"
     inkscape:window-x="-9"
     inkscape:window-y="-9"
     inkscape:window-maximized="1"
     inkscape:current-layer="layer1" />
  <defs
     id="defs47915" />
  <g
     inkscape:label="Слой 1"
     inkscape:groupmode="layer"
     id="layer1">
    <path
       id="rect66-6-4"
       style="fill:#ffe680;fill-opacity:1;fill-rule:evenodd;stroke-width:0.264583"
       d="m 235.74064,217.87596 h 17.86466 v 17.86466 h -17.86466 z m -17.86465,17.86467 h 17.86466 v 17.86466 h -17.86466 z m 17.86465,17.86466 h 17.86466 v 17.86466 h -17.86466 z m 17.86469,-17.86467 h 17.86466 v 17.86466 h -17.86466 z" />
    <rect
       style="fill:#ffffff;fill-rule:evenodd;stroke-width:0.264583"
       id="rect66-834-2-0"
       width="17.864662"
       height="17.864662"
       x="325.06393"
       y="325.0639" />
    <rect
       style="fill:#ff0000;fill-rule:evenodd;stroke-width:0.264583"
       id="rect66-23-5-0"
       width="17.864662"
       height="17.864662"
       x="378.65793"
       y="164.28197" />
    <rect
       style="fill:#ff0000;fill-rule:evenodd;stroke-width:0.264583"
       id="rect66-23-5-9-5"
       width="17.864662"
       height="17.864662"
       x="307.19928"
       y="57.09399" />
    <rect
       style="fill:#ff0000;fill-rule:evenodd;stroke-width:0.264583"
       id="rect66-23-5-2-7-0"
       width="17.864662"
       height="17.864662"
       x="429.27451"
       y="90.962448" />
    <rect
       style="fill:#ff0000;fill-rule:evenodd;stroke-width:0.264583"
       id="rect66-23-4-4-0"
       width="17.864662"
       height="17.864662"
       x="414.38727"
       y="57.09399" />
    <rect
       style="fill:#ffffff;fill-opacity:1;fill-rule:evenodd;stroke-width:0.264583"
       id="rect66-23-4-1-04-3"
       width="17.864662"
       height="17.864662"
       x="360.79327"
       y="128.55264" />
    <rect
       style="fill:#ffffff;fill-opacity:1;fill-rule:evenodd;stroke-width:0.264583"
       id="rect66-23-4-1-04-3-9"
       width="17.864662"
       height="17.864662"
       x="360.79327"
       y="92.823318" />
    <rect
       style="fill:#ffffff;fill-opacity:1;fill-rule:evenodd;stroke-width:0.264583"
       id="rect66-23-55-4-1-3-5"
       width="17.864662"
       height="17.864662"
       x="342.92859"
       y="110.68798" />
    <rect
       style="fill:#ffffff;fill-opacity:1;fill-rule:evenodd;stroke-width:0.264583"
       id="rect66-23-55-9-3-2-9"
       width="17.864662"
       height="17.864662"
       x="378.65793"
       y="110.68798" />
    <rect
       style="fill:#ff0000;fill-rule:evenodd;stroke-width:0.264583"
       id="rect29659"
       width="17.864662"
       height="17.864662"
       x="378.65793"
       y="-74.958656"
       transform="scale(1,-1)" />
    <path
       style="fill:none;stroke:#000000;stroke-width:3;stroke-linecap:butt;stroke-linejoin:miter;stroke-miterlimit:4;stroke-dasharray:none;stroke-opacity:1"
       d="m 307.19929,110.688 v 17.86466 h -35.72931 v 17.86466 h -17.86467 v 17.86467 h 17.86466 v 17.86466 h 35.72932 l -1e-5,35.72931 h 17.86467 v 17.86467 h 17.86465 v -17.86468 h 17.86465 v -35.72932 h 17.86466 l -2e-5,35.72932 h 17.86467 v 17.86465 h 17.86466 v -17.86466 h 17.86465 v -35.72932 h 35.72932 l 3e-5,-17.86466 h 17.86464 V 146.4173 h -17.86467 v -17.86467 h -35.72932 l 6e-5,-17.86465 h 35.72931 l 3e-5,-17.864666 h 17.86467 V 74.958652 h -17.86467 l -3e-5,-17.864662 -35.72937,1.6e-5 V 21.36469 H 414.38722 V 3.50003 h -17.86466 v 17.86464 h -17.86467 l 2e-5,35.72932 -17.86466,5e-6 V 21.36467 H 342.9286 V 3.5 h -17.86465 v 17.86466 h -17.86467 l 1e-5,35.72933 H 271.46997 V 74.958652 H 253.6053 v 17.864662 h 17.86466 l -1e-5,17.864666 h 35.72933"
       id="path30042" />
    <path
       style="fill:none;stroke:#000000;stroke-width:1;stroke-linecap:butt;stroke-linejoin:miter;stroke-miterlimit:4;stroke-dasharray:none;stroke-opacity:1"
       d="M 450.11652,39.22935 V 3.50003 h 17.86467 v 17.86466 h 17.86464 v 17.86466 z"
       id="path30044" />
    <rect
       style="fill:#ff0000;fill-rule:evenodd;stroke-width:0.264583"
       id="rect66-23-5-0-7"
       width="17.864662"
       height="17.864662"
       x="-110.68803"
       y="-325.0639"
       transform="scale(-1)" />
    <rect
       style="fill:#ff0000;fill-rule:evenodd;stroke-width:0.264583"
       id="rect66-23-5-9-5-1"
       width="17.864662"
       height="17.864662"
       x="-182.14668"
       y="-432.25189"
       transform="scale(-1)" />
    <rect
       style="fill:#ff0000;fill-rule:evenodd;stroke-width:0.264583"
       id="rect66-23-5-2-7-0-5"
       width="17.864662"
       height="17.864662"
       x="-60.071445"
       y="-398.38345"
       transform="scale(-1)" />
    <rect
       style="fill:#ff0000;fill-rule:evenodd;stroke-width:0.264583"
       id="rect66-23-4-4-0-0"
       width="17.864662"
       height="17.864662"
       x="-74.958717"
       y="-432.25189"
       transform="scale(-1)" />
    <rect
       style="fill:#ffffff;fill-opacity:1;fill-rule:evenodd;stroke-width:0.264583"
       id="rect66-23-4-1-04-3-2"
       width="17.864662"
       height="17.864662"
       x="-128.55269"
       y="-360.79324"
       transform="scale(-1)" />
    <rect
       style="fill:#ffffff;fill-opacity:1;fill-rule:evenodd;stroke-width:0.264583"
       id="rect66-23-4-1-04-3-9-4"
       width="17.864662"
       height="17.864662"
       x="-128.55269"
       y="-396.52258"
       transform="scale(-1)" />
    <rect
       style="fill:#ffffff;fill-opacity:1;fill-rule:evenodd;stroke-width:0.264583"
       id="rect66-23-55-4-1-3-5-4"
       width="17.864662"
       height="17.864662"
       x="-146.41737"
       y="-378.65793"
       transform="scale(-1)" />
    <rect
       style="fill:#ffffff;fill-opacity:1;fill-rule:evenodd;stroke-width:0.264583"
       id="rect66-23-55-9-3-2-9-9"
       width="17.864662"
       height="17.864662"
       x="-110.68803"
       y="-378.65793"
       transform="scale(-1)" />
    <path
       id="rect66-23-55-9-3-0-3-7-5"
       style="fill:#000000;fill-opacity:1;fill-rule:evenodd;stroke-width:0.264583"
       d="M 92.823406,378.65793 H 74.958744 v -17.86466 h 17.864662 z m 71.458584,0 h -17.86466 v -17.86466 h 17.86466 z M 92.823345,396.52258 H 74.958683 v -17.86466 h 17.864662 z m 17.864685,0 H 92.823368 v -17.86466 h 17.864662 z m 53.59396,0 h -17.86466 v -17.86466 h 17.86466 z m -17.86465,0 h -17.86466 v -17.86466 h 17.86466 z M 92.823406,360.79324 H 74.958744 v -17.86466 h 17.864662 z m 17.864624,0 H 92.823368 v -17.86466 h 17.864662 z m 53.59399,0 h -17.86466 v -17.86466 h 17.86466 z m -17.86465,0 h -17.86466 v -17.86466 h 17.86466 z m -17.86469,53.594 h -17.86466 v -17.86466 h 17.86466 z m -35.729335,0 H 74.958683 v -17.86466 h 17.864662 z m 17.864685,0 H 92.823368 v -17.86466 h 17.864662 z m 53.59396,0 h -17.86466 v -17.86466 h 17.86466 z m -17.86465,0 h -17.86466 v -17.86466 h 17.86466 z m -17.86466,-71.45865 h -17.86466 v -17.86466 h 17.86466 z m -35.729274,0 H 74.958744 v -17.86466 h 17.864662 z m 17.864624,0 H 92.823368 v -17.86466 h 17.864662 z m 53.59399,0 h -17.86466 v -17.86466 h 17.86466 z m -17.86465,0 h -17.86466 v -17.86466 h 17.86466 z M 396.52256,110.68798 h 17.86466 v 17.86466 h -17.86466 z m -71.45865,0 h 17.86467 v 17.86466 h -17.86467 z m 71.45865,-17.864662 h 17.86466 v 17.864662 h -17.86466 z m -17.86465,0 h 17.86466 v 17.864662 h -17.86466 z m -53.594,0 h 17.86467 v 17.864662 h -17.86467 z m 17.86466,0 h 17.86466 v 17.864662 h -17.86466 z m 53.59399,35.729322 h 17.86466 v 17.86466 h -17.86466 z m -17.86465,0 h 17.86466 v 17.86466 h -17.86466 z m -53.594,0 h 17.86467 v 17.86466 h -17.86467 z m 17.86466,0 h 17.86466 v 17.86466 h -17.86466 z m 17.86468,-53.593984 h 17.86467 v 17.864662 h -17.86467 z m 35.72931,0 h 17.86466 v 17.864662 h -17.86466 z m -17.86465,0 h 17.86466 v 17.864662 h -17.86466 z m -53.594,0 h 17.86467 v 17.864662 h -17.86467 z m 17.86466,0 h 17.86466 v 17.864662 h -17.86466 z m 17.86468,71.458644 h 17.86467 v 17.86466 h -17.86467 z m 35.72931,0 h 17.86466 v 17.86466 h -17.86466 z m -17.86465,0 h 17.86466 v 17.86466 h -17.86466 z m -53.594,0 h 17.86467 v 17.86466 h -17.86467 z m 17.86466,0 h 17.86466 v 17.86466 h -17.86466 z" />
    <rect
       style="fill:#ff0000;fill-rule:evenodd;stroke-width:0.264583"
       id="rect29659-1"
       width="17.864662"
       height="17.864662"
       x="-110.68803"
       y="414.38724"
       transform="scale(-1,1)" />
    <rect
       style="fill:#ff0000;fill-rule:evenodd;stroke-width:0.264583"
       id="rect66-23-5-2-7-1-3"
       width="17.864662"
       height="17.864662"
       x="-21.364784"
       y="-467.9812"
       transform="scale(-1)" />
    <path
       style="fill:none;stroke:#000000;stroke-width:3;stroke-linecap:butt;stroke-linejoin:miter;stroke-miterlimit:4;stroke-dasharray:none;stroke-opacity:1"
       d="m 182.14666,378.6579 v -17.86467 h 35.72931 v -17.86466 h 17.86467 v -17.86466 h -17.86466 v -17.86466 h -35.72932 l 1e-5,-35.72932 H 164.282 v -17.86467 h -17.86465 v 17.86468 H 128.5527 v 35.72932 l -17.86466,1e-5 2e-5,-35.72933 H 92.82339 V 253.60529 H 74.95873 v 17.86466 H 57.09408 v 35.72933 H 21.36476 l -3e-5,17.86466 H 3.50009 v 17.86466 h 17.86467 v 17.86466 h 35.72932 l -6e-5,17.86466 H 21.36471 l -3e-5,17.86466 H 3.50001 v 17.86466 h 17.86467 l 3e-5,17.86467 35.72937,-2e-5 v 35.72932 h 17.86465 v 17.86466 h 17.86466 v -17.86465 h 17.86467 l -2e-5,-35.72931 17.86466,-1e-5 v 35.72932 h 17.86465 V 485.8459 H 164.282 v -17.86466 h 17.86467 l -1e-5,-35.72933 h 35.72932 v -17.86467 h 17.86467 v -17.86466 h -17.86466 l 1e-5,-17.86466 h -35.72933"
       id="path30042-5" />
    <path
       style="fill:none;stroke:#000000;stroke-width:3;stroke-linecap:butt;stroke-linejoin:miter;stroke-miterlimit:4;stroke-dasharray:none;stroke-opacity:1"
       d="m 289.33463,253.60528 h 53.59398 v 35.72935 h -17.86466"
       id="path33361" />
    <path
       style="fill:none;stroke:#000000;stroke-width:3;stroke-linecap:butt;stroke-linejoin:miter;stroke-miterlimit:4;stroke-dasharray:none;stroke-opacity:1"
       d="m 253.60526,289.33459 v 53.59398 h 35.72935 v -17.86466"
       id="path33361-8" />
    <rect
       style="fill:#ffffff;fill-rule:evenodd;stroke-width:0.264583"
       id="rect66-834-2-0-9"
       width="17.864662"
       height="17.864662"
       x="414.38727"
       y="414.38715" />
    <path
       style="fill:none;stroke:#000000;stroke-width:3;stroke-linecap:butt;stroke-linejoin:miter;stroke-miterlimit:4;stroke-dasharray:none;stroke-opacity:1"
       d="m 289.33463,289.33459 17.86463,17.86466"
       id="path34151" />
    <path
       style="fill:none;stroke:#000000;stroke-width:3;stroke-linecap:butt;stroke-linejoin:miter;stroke-miterlimit:4;stroke-dasharray:none;stroke-opacity:1"
       d="m 307.19931,378.65786 -2e-5,71.45861 h -17.8647 v 17.86467 h -17.86465 l -2e-5,17.86466 h -17.86466 l 5e-5,-71.45864 h 17.86466 l -10e-6,-17.86464 h 17.86468 v -17.86466 h 17.86467"
       id="path35981" />
    <path
       style="fill:none;stroke:#000000;stroke-width:3;stroke-linecap:butt;stroke-linejoin:miter;stroke-miterlimit:4;stroke-dasharray:none;stroke-opacity:1"
       d="m 325.06396,450.11647 -1e-5,-71.45861 h 17.86465 l 3e-5,17.86466 h 17.86465 v 17.86464 h 17.86466 l 6e-5,71.45864 h -17.86467 l -1e-5,-17.86466 h -17.86466 v -17.86467 z"
       id="path35983" />
    <path
       style="fill:none;stroke:#000000;stroke-width:3;stroke-linecap:butt;stroke-linejoin:miter;stroke-miterlimit:4;stroke-dasharray:none;stroke-opacity:1"
       d="m 378.65791,325.0639 v 17.86466 h 17.86464 l 5e-5,17.86469 h 17.86464 v 17.86465 l 71.45859,3e-5 v -17.86466 l -17.86464,10e-6 v -17.86466 l -17.86464,-6e-5 V 325.0639 Z"
       id="path35985" />
    <path
       style="fill:none;stroke:#000000;stroke-width:3;stroke-linecap:butt;stroke-linejoin:miter;stroke-miterlimit:4;stroke-dasharray:none;stroke-opacity:1"
       d="m 378.65791,307.19925 v -17.86466 h 17.86464 l 5e-5,-17.86469 h 17.86464 v -17.86465 l 71.45859,-3e-5 v 17.86466 l -17.86464,-10e-6 v 17.86466 l -17.86464,6e-5 v 17.86466 z"
       id="path35985-9" />
    <path
       style="fill:none;stroke:#000000;stroke-width:3;stroke-linecap:butt;stroke-linejoin:miter;stroke-miterlimit:4;stroke-dasharray:none;stroke-opacity:1"
       d="m 360.79325,360.79322 35.72934,35.72928"
       id="path36388" />
    <path
       style="fill:none;stroke:#000000;stroke-width:3;stroke-linecap:butt;stroke-linejoin:miter;stroke-miterlimit:4;stroke-dasharray:none;stroke-opacity:1"
       d="m 253.60532,378.65786 v -17.86464 h 17.86466 v 17.86464 h -17.86466"
       id="path36627" />
    <path
       style="fill:none;stroke:#000000;stroke-width:3;stroke-linecap:butt;stroke-linejoin:miter;stroke-miterlimit:4;stroke-dasharray:none;stroke-opacity:1"
       d="m 360.79327,271.46992 v -17.86464 h 17.86466 v 17.86464 h -17.86466"
       id="path36627-0" />
    <path
       style="fill:none;stroke:#000000;stroke-width:3;stroke-linecap:butt;stroke-linejoin:miter;stroke-miterlimit:4;stroke-dasharray:none;stroke-opacity:1"
       d="m 414.38728,450.11644 v 35.72928 h 17.86466"
       id="path36963" />
    <path
       style="fill:none;stroke:#000000;stroke-width:3;stroke-linecap:butt;stroke-linejoin:miter;stroke-miterlimit:4;stroke-dasharray:none;stroke-opacity:1"
       d="m 450.11656,414.38715 h 35.72928 v 17.86466"
       id="path36963-5" />
    <path
       style="fill:none;stroke:#000000;stroke-width:3;stroke-linecap:butt;stroke-linejoin:miter;stroke-miterlimit:4;stroke-dasharray:none;stroke-opacity:1"
       d="m 450.11663,450.11644 17.86453,17.8647 1.1e-4,17.86458 h -17.86464 l -5e-5,-17.86464"
       id="path37449" />
    <path
       style="fill:none;stroke:#000000;stroke-width:3;stroke-linecap:butt;stroke-linejoin:miter;stroke-miterlimit:4;stroke-dasharray:none;stroke-opacity:1"
       d="m 467.98127,467.98108 17.86456,6e-5 V 450.1165 l -17.86467,-3e-5"
       id="path37666" />
    <rect
       style="fill:#ffffff;fill-rule:evenodd;stroke-width:0.264583"
       id="rect66-834-2-0-8"
       width="17.864662"
       height="17.864662"
       x="-164.28203"
       y="-164.28201"
       transform="scale(-1)" />
    <path
       style="fill:none;stroke:#000000;stroke-width:3;stroke-linecap:butt;stroke-linejoin:miter;stroke-miterlimit:4;stroke-dasharray:none;stroke-opacity:1"
       d="m 200.01131,235.74063 h -53.59398 v -35.72935 h 17.86466"
       id="path33361-0" />
    <path
       style="fill:none;stroke:#000000;stroke-width:3;stroke-linecap:butt;stroke-linejoin:miter;stroke-miterlimit:4;stroke-dasharray:none;stroke-opacity:1"
       d="M 235.74067,200.01132 V 146.41734 H 200.01133 V 164.282"
       id="path33361-8-0" />
    <rect
       style="fill:#ffffff;fill-rule:evenodd;stroke-width:0.264583"
       id="rect66-834-2-0-9-7"
       width="17.864662"
       height="17.864662"
       x="-74.958656"
       y="-74.958763"
       transform="scale(-1)" />
    <path
       id="rect66-23-0-2-7-5-8"
       style="fill:#ffb3c7;fill-opacity:1;fill-rule:evenodd;stroke-width:0.264583"
       d="M 57.093967,57.094105 H 39.229305 V 39.229443 h 17.864662 z m 17.864693,0 H 57.093998 V 39.229443 H 74.95866 Z m 17.864685,0 H 74.958683 V 39.229443 H 92.823345 Z M 57.094028,92.823418 H 39.229366 V 74.958755 h 17.864662 z m 17.864632,0 H 57.093998 V 74.958755 H 74.95866 Z m 17.864685,0 H 74.958683 V 74.958755 H 92.823345 Z M 57.094028,74.958763 H 39.229366 V 57.094101 h 17.864662 z m 35.729317,0 H 74.958683 V 57.094101 h 17.864662 z m 53.593995,71.458577 h -17.86466 v -17.86466 h 17.86466 z m 17.86465,0 h -17.86466 v -17.86466 h 17.86466 z m 17.86469,0 h -17.86466 v -17.86466 h 17.86466 z m -35.72931,35.72931 h -17.86466 v -17.86466 h 17.86466 z m 17.86465,0 h -17.86466 v -17.86466 h 17.86466 z m 17.86469,0 h -17.86466 v -17.86466 h 17.86466 z m -35.72934,-17.86464 h -17.86466 v -17.86466 h 17.86466 z m 35.72934,0 h -17.86466 v -17.86466 h 17.86466 z M 432.25196,432.2518 h 17.86467 v 17.86466 h -17.86467 z m -17.86468,0 h 17.86466 v 17.86466 h -17.86466 z m -17.86469,0 h 17.86467 v 17.86466 h -17.86467 z m 35.72931,-35.72931 h 17.86466 v 17.86466 H 432.2519 Z m -17.86465,0 h 17.86466 v 17.86466 h -17.86466 z m -17.86466,0 h 17.86467 v 17.86466 h -17.86467 z m 35.72931,17.86466 h 17.86466 v 17.86466 H 432.2519 Z m -35.72931,0 h 17.86467 v 17.86466 h -17.86467 z m -53.59402,-71.45859 h 17.86466 v 17.86466 h -17.86466 z m -17.86466,0 h 17.86467 v 17.86466 h -17.86467 z m -17.86465,0 h 17.86466 v 17.86466 h -17.86466 z m 35.72931,-35.72931 h 17.86466 v 17.86466 h -17.86466 z m -17.86466,0 h 17.86467 v 17.86466 h -17.86467 z m -17.86468,0 h 17.86466 v 17.86466 H 307.19923 Z M 39.229431,450.11655 v 35.72932 H 21.364761 V 467.98121 H 3.500121 v -17.86466 z m -2.7e-5,35.72931 H 21.364742 v -17.86467 h 17.864662 z m 0,-17.86466 H 21.364742 V 450.11654 H 39.229404 Z M 110.68803,414.38724 H 92.823368 v 17.86466 h 17.864662 z m 17.86465,0 h -17.86466 v 17.86466 h 17.86466 z m -17.86462,35.72931 H 92.823398 v 17.86466 h 17.864662 z m -35.729339,0 H 57.094059 v 17.86466 H 74.958721 Z M 92.823406,467.9812 H 74.958744 v 17.86466 h 17.864662 z m 0,-17.86465 H 74.958744 v 17.86466 H 92.823406 Z M 110.68803,432.25189 H 92.823368 v 17.86466 H 110.68803 Z M 92.823406,414.38721 H 74.958744 v 17.86466 H 92.823406 Z M 74.958721,432.25189 H 57.094059 v 17.86466 h 17.864662 z m 17.864685,0 H 74.958744 v 17.86466 h 17.864662 z m 89.323274,17.86469 h -17.86466 v 17.86466 h 17.86466 z m -35.72934,-3e-5 h -17.86466 v 17.86466 h 17.86466 z m 17.86465,17.86468 h -17.86466 v 17.86466 h 17.86466 z m 0,-17.86468 h -17.86466 v 17.86466 h 17.86466 z M 74.958721,414.38721 H 57.094059 v 17.86466 h 17.864662 z m 107.187959,3e-5 h -17.86466 v 17.86466 h 17.86466 z m 0,17.86465 h -17.86466 v 17.86466 h 17.86466 z m -35.72934,-17.86465 h -17.86466 v 17.86466 h 17.86466 z m 17.86465,0 h -17.86466 v 17.86466 h 17.86466 z m -17.86465,17.86465 h -17.86466 v 17.86466 h 17.86466 z m 17.86465,0 h -17.86466 v 17.86466 h 17.86466 z m -35.72931,-53.59396 h -17.86466 v -17.86466 h 17.86466 z M 39.229343,414.38724 H 21.364681 v -17.86466 h 17.864662 z m -17.864677,0 H 3.500003 v -17.86466 h 17.864663 z m 53.593994,0 H 57.093998 V 396.52258 H 74.95866 Z m -17.864632,0 H 39.229366 V 396.52258 H 57.094028 Z M 39.229343,396.52258 H 21.364681 v -17.86466 h 17.864662 z m 35.729317,0 H 57.093998 V 378.65792 H 74.95866 Z m -17.864632,0 H 39.229366 v -17.86466 h 17.864662 z m 0,35.72931 H 39.229366 v -17.86466 h 17.864662 z m -17.864685,0 H 21.364681 v -17.86466 h 17.864662 z m 6.1e-5,-89.3233 H 21.364742 v -17.86466 h 17.864662 z m -17.864677,0 H 3.500064 v -17.86466 h 17.864663 z m 53.593994,0 H 57.094059 v -17.86466 h 17.864662 z m -17.864632,0 H 39.229427 v -17.86466 h 17.864662 z m 142.917241,71.45865 h -17.86466 v -17.86466 h 17.86466 z m -17.86465,0 h -17.86466 v -17.86466 h 17.86466 z m 53.59399,0 h -17.86466 v -17.86466 h 17.86466 z m -17.86465,0 h -17.86467 v -17.86466 h 17.86467 z m -3e-5,17.86465 h -17.86467 v -17.86466 h 17.86467 z m -17.86466,0 h -17.86466 v -17.86466 h 17.86466 z m 17.86469,-35.72931 h -17.86467 v -17.86466 h 17.86467 z m -17.86469,0 h -17.86466 v -17.86466 h 17.86466 z m -17.86465,0 h -17.86466 v -17.86466 h 17.86466 z m 17.86465,-53.59402 H 182.14667 V 325.0639 h 17.86466 z m -17.86465,0 H 164.28202 V 325.0639 h 17.86466 z m 53.59396,0 H 217.87598 V 325.0639 h 17.86466 z m -17.86465,0 H 200.01132 V 325.0639 h 17.86467 z M 110.68803,325.0639 H 92.823368 v -17.86466 h 17.864662 z m 17.86465,0 h -17.86466 v -17.86466 h 17.86466 z M 110.68806,289.33459 H 92.823398 v -17.86466 h 17.864662 z m -35.729339,0 H 57.094059 V 271.46993 H 74.958721 Z M 92.823406,271.46994 H 74.958744 v -17.86466 h 17.864662 z m 0,17.86465 H 74.958744 v -17.86466 h 17.864662 z m 17.864624,17.86466 H 92.823368 V 289.33459 H 110.68803 Z M 39.229404,325.06393 H 21.364742 v -17.86466 h 17.864662 z m 53.594002,0 H 74.958744 V 307.19927 H 92.823406 Z M 74.958721,307.19928 H 57.094059 v -17.86466 h 17.864662 z m 17.864685,0 H 74.958744 v -17.86466 h 17.864662 z m 89.323274,-17.86469 h -17.86466 v -17.86466 h 17.86466 z m -35.72934,0 h -17.86466 v -17.86466 h 17.86466 z m 17.86465,-17.86468 h -17.86466 v -17.86466 h 17.86466 z m 0,17.86468 h -17.86466 v -17.86466 h 17.86466 z M 74.958721,325.06393 H 57.094059 v -17.86466 h 17.864662 z m -17.864632,0 H 39.229427 v -17.86466 h 17.864662 z m 17.864632,35.72934 H 57.094059 v -17.86466 h 17.864662 z m -17.864632,0 H 39.229427 v -17.86466 h 17.864662 z m -17.864685,0 H 21.364742 v -17.86466 h 17.864662 z m 178.646586,-3e-5 h -17.86467 v -17.86466 h 17.86467 z m -17.86466,0 h -17.86466 v -17.86466 h 17.86466 z M 74.958721,378.65793 H 57.094059 v -17.86466 h 17.864662 z m 107.187959,-3e-5 h -17.86466 v -17.86466 h 17.86466 z m 0,-17.86466 h -17.86466 v -17.86466 h 17.86466 z m 35.72931,-35.72934 h -17.86467 v -17.86466 h 17.86467 z m -17.86466,0 h -17.86466 v -17.86466 h 17.86466 z m -17.86465,0 h -17.86466 v -17.86466 h 17.86466 z m 0,-17.86465 h -17.86466 v -17.86466 h 17.86466 z m -35.72934,17.86465 h -17.86466 v -17.86466 h 17.86466 z m 17.86465,0 h -17.86466 v -17.86466 h 17.86466 z m -17.86465,-17.86465 h -17.86466 v -17.86466 h 17.86466 z m 17.86465,0 h -17.86466 v -17.86466 h 17.86466 z M 467.98118,21.364691 h 17.86466 V 39.229353 H 467.98118 Z M 450.11653,3.500028 h 17.86466 V 21.36469 h -17.86466 z m 0,17.864663 h 17.86466 v 17.864662 h -17.86466 z m -71.45862,53.593965 h 17.86466 V 57.093994 h -17.86466 z m -17.86466,0 h 17.86467 V 57.093994 h -17.86467 z m 17.86463,-35.729328 h 17.86466 V 21.364666 h -17.86466 z m 35.72934,1.5e-5 h 17.86466 V 21.364681 H 414.38722 Z M 396.52256,21.364691 h 17.86466 V 3.500029 h -17.86466 z m 0,17.864652 h 17.86466 V 21.364681 h -17.86466 z m -17.86465,17.864655 h 17.86466 V 39.229336 h -17.86466 z m 17.86465,17.864674 h 17.86466 V 57.094009 h -17.86466 z m 17.86466,-17.864666 h 17.86466 V 39.229343 h -17.86466 z m -17.86466,0 h 17.86466 V 39.229343 h -17.86466 z m -89.3233,-17.864685 h 17.86466 V 21.364658 h -17.86466 z m 35.72931,7e-6 h 17.86466 V 21.364666 H 342.92857 Z M 325.06391,21.36466 h 17.86467 V 3.499998 h -17.86467 z m 0,17.864668 h 17.86467 V 21.364666 h -17.86467 z m 89.32331,35.729344 h 17.86466 V 57.094009 h -17.86466 z m -107.18796,-3.1e-5 h 17.86466 V 57.093979 h -17.86466 z m 0,-17.864658 h 17.86466 V 39.229321 h -17.86466 z m 35.72931,17.864673 h 17.86466 V 57.093994 h -17.86466 z m -17.86466,-1.5e-5 h 17.86467 V 57.093979 H 325.06391 Z M 342.92857,57.09399 h 17.86466 V 39.229328 h -17.86466 z m -17.86466,0 h 17.86467 V 39.229328 h -17.86467 z m 35.72934,53.59399 h 17.86467 v 17.86466 h -17.86467 z m 89.32334,-35.729324 h 17.86466 v 17.864662 h -17.86466 z m 17.86468,0 h 17.86466 v 17.864662 h -17.86466 z m -53.59402,0 h 17.86466 v 17.864662 h -17.86466 z m 17.86465,0 h 17.86466 V 92.823318 H 432.2519 Z m 17.86469,17.864662 h 17.86466 v 17.864662 h -17.86466 z m -35.72934,0 h 17.86466 v 17.864662 h -17.86466 z m 17.86465,0 h 17.86466 V 110.68798 H 432.2519 Z m 0,-35.729328 h 17.86466 V 74.958652 H 432.2519 Z m 17.86469,0 h 17.86466 v 17.864662 h -17.86466 z m -6e-5,89.32329 h 17.86466 v 17.86466 h -17.86466 z m 17.86468,0 h 17.86466 v 17.86466 h -17.86466 z m -53.59399,0 h 17.86466 v 17.86466 h -17.86466 z m 17.86465,0 h 17.86466 v 17.86466 H 432.25187 Z M 289.3346,74.958656 h 17.86467 V 92.823318 H 289.3346 Z m 17.86466,0 h 17.86466 v 17.864662 h -17.86466 z m -53.59396,0 h 17.86466 V 92.823318 H 253.6053 Z m 17.86462,0 h 17.86466 v 17.864662 h -17.86466 z m 3e-5,-17.864666 h 17.86466 v 17.864662 h -17.86466 z m 17.86465,0 h 17.86467 V 74.958652 H 289.3346 Z m -17.86468,35.729328 h 17.86466 v 17.864662 h -17.86466 z m 17.86468,0 h 17.86467 V 110.68798 H 289.3346 Z m 17.86466,0 h 17.86466 V 110.68798 H 307.19926 Z M 289.3346,146.41731 h 17.86467 v 17.86466 H 289.3346 Z m 17.86466,0 h 17.86466 v 17.86466 h -17.86466 z m -53.59393,0 h 17.86466 v 17.86466 h -17.86466 z m 17.86462,0 h 17.86466 v 17.86466 h -17.86466 z m 107.18796,17.86466 h 17.86466 v 17.86466 h -17.86466 z m -17.86466,0 h 17.86467 v 17.86466 h -17.86467 z m 17.86463,35.72932 h 17.86466 v 17.86466 h -17.86466 z m 35.72934,-1e-5 h 17.86466 v 17.86466 h -17.86466 z m -17.86466,17.86465 h 17.86466 v 17.86466 h -17.86466 z m 0,-17.86465 h 17.86466 v 17.86466 h -17.86466 z m -17.86465,-17.86466 h 17.86466 v 17.86466 h -17.86466 z m 71.45862,-17.86467 h 17.86466 v 17.86466 h -17.86466 z m -53.59397,0 h 17.86466 v 17.86466 h -17.86466 z m 17.86466,17.86466 h 17.86466 v 17.86466 h -17.86466 z m -17.86466,0 h 17.86466 v 17.86466 h -17.86466 z m -89.3233,17.86468 h 17.86466 v 17.86466 h -17.86466 z m 35.72931,0 h 17.86466 v 17.86466 h -17.86466 z m -17.86466,17.86467 h 17.86467 v 17.86466 h -17.86467 z m 0,-17.86467 h 17.86467 v 17.86466 h -17.86467 z m 89.32331,-35.72934 h 17.86466 v 17.86466 h -17.86466 z m 17.86465,0 h 17.86466 v 17.86466 h -17.86466 z m -17.86468,-35.72931 h 17.86466 v 17.86466 h -17.86466 z m 17.86465,0 h 17.86466 v 17.86466 h -17.86466 z m 17.86469,0 h 17.86466 v 17.86466 h -17.86466 z m -178.64658,3e-5 h 17.86466 v 17.86467 h -17.86466 z m 17.86465,0 h 17.86467 v 17.86467 H 289.3346 Z m 125.05262,-17.86469 h 17.86466 v 17.86466 h -17.86466 z m -107.18796,2e-5 h 17.86466 v 17.86467 h -17.86466 z m 0,17.86467 h 17.86466 v 17.86467 h -17.86466 z m -35.72931,35.72931 h 17.86466 v 17.86466 h -17.86466 z m 17.86465,0 h 17.86467 v 17.86466 H 289.3346 Z m 17.86466,0 h 17.86466 v 17.86466 h -17.86466 z m 0,17.86466 h 17.86466 v 17.86466 h -17.86466 z m -35.72931,71.45865 h 17.86466 v 17.86466 h -17.86466 z m 0,-17.86466 h 17.86466 v 17.86466 h -17.86466 z m 0,-17.86467 h 17.86466 v 17.86466 h -17.86466 z m 71.45862,107.18794 h 17.86466 v 17.86467 h -17.86466 z m -35.72934,0 h 17.86466 v 17.86467 h -17.86466 z m -35.72928,-53.59396 h 17.86466 v 17.86466 h -17.86466 z m -17.86462,0 h 17.86466 v 17.86466 h -17.86466 z m -17.86469,0 h 17.86466 v 17.86466 h -17.86466 z m -17.86465,0 h 17.86466 v 17.86466 h -17.86466 z m -17.86466,0 h 17.86466 V 289.3346 H 200.01133 Z M 342.92857,164.28197 h 17.86466 v 17.86466 h -17.86466 z m -17.86466,1e-5 h 17.86467 v 17.86466 h -17.86467 z m 17.86466,17.86464 h 17.86466 v 17.86466 h -17.86466 z m -17.86466,0 h 17.86467 v 17.86466 h -17.86467 z m -53.59396,17.86467 h 17.86466 v 17.86466 h -17.86466 z m -17.86462,0 h 17.86466 v 17.86466 h -17.86466 z m -17.86469,2e-5 h 17.86466 v 17.86466 h -17.86466 z m -17.86465,0 h 17.86466 v 17.86466 h -17.86466 z m -17.86466,0 h 17.86466 v 17.86466 h -17.86466 z m 0,17.86465 h 17.86466 v 17.86466 h -17.86466 z m 0,17.86467 h 17.86466 v 17.86466 h -17.86466 z m 0,17.86464 h 17.86466 v 17.86466 h -17.86466 z m 17.86466,2e-5 h 17.86466 v 17.86466 h -17.86466 z m 0,-35.72933 h 17.86466 v 17.86466 h -17.86466 z m 35.72934,35.72933 h 17.86466 v 17.86466 h -17.86466 z m 0,-35.72933 h 17.86466 v 17.86466 h -17.86466 z m -17.86469,17.86467 h 17.86466 v 17.86466 h -17.86466 z" />
    <path
       style="fill:none;stroke:#000000;stroke-width:3;stroke-linecap:butt;stroke-linejoin:miter;stroke-miterlimit:4;stroke-dasharray:none;stroke-opacity:1"
       d="M 200.01132,200.01131 182.14669,182.14666"
       id="path34151-1" />
    <path
       id="rect66-23-0-2-7-8-2-7-7-3"
       style="fill:#00d455;fill-opacity:1;fill-rule:evenodd;stroke-width:0.264583"
       d="m 39.22939,146.41735 v 17.86466 H 57.09405 V 146.41735 Z M 3.50011,110.68798 v 17.86466 h 17.86466 v -17.86466 z m 17.86465,17.86465 v 17.86466 h 17.86466 v -17.86466 z m 0,-17.86465 v 17.86466 h 17.86466 v -17.86466 z m 17.86463,0 v 17.86466 h 17.86466 v -17.86466 z m 17.86465,3e-5 v 17.86466 h 17.86465 v -17.86466 z m -17.86465,17.86462 v 17.86466 h 17.86466 v -17.86466 z m 35.72928,3e-5 v 17.86466 h 17.86467 v -17.86466 z m -17.86463,0 v 17.86466 h 17.86465 v -17.86466 z m 3e-5,17.86469 v 17.86466 h 17.86465 v -17.86466 z m 35.72931,0 v 17.86466 h 17.86466 v -17.86466 z m -17.86466,0 v 17.86466 H 92.82339 V 146.41735 Z M 164.28199,57.094074 H 146.41733 V 39.229412 h 17.86466 z M 128.55262,21.364752 H 110.68796 V 3.50009 h 17.86466 z M 146.41728,39.22942 H 128.55261 V 21.364758 h 17.86467 z m -17.86466,0 H 110.68796 V 21.364758 h 17.86466 z m 0,17.864654 H 110.68796 V 39.229412 h 17.86466 z m 3e-5,17.864659 H 110.68799 V 57.09407 h 17.86466 z M 146.41728,57.094074 H 128.55261 V 39.229412 h 17.86467 z m 3e-5,35.729313 H 128.55265 V 74.958725 h 17.86466 z m 0,-17.864654 H 128.55265 V 57.09407 h 17.86466 z m 17.86468,0 H 146.41733 V 57.09407 h 17.86466 z m 0,35.729317 H 146.41733 V 92.823387 h 17.86466 z m 0,-17.864663 H 146.41733 V 74.958725 h 17.86466 z M 450.11655,342.92856 V 325.0639 h -17.86466 v 17.86466 z m 35.72928,35.72937 v -17.86466 h -17.86466 v 17.86466 z m -17.86465,-17.86465 v -17.86466 h -17.86466 v 17.86466 z m 0,17.86465 v -17.86466 h -17.86466 v 17.86466 z m -17.86463,0 v -17.86466 h -17.86466 v 17.86466 z m -17.86465,-3e-5 v -17.86466 h -17.86466 v 17.86466 z m 17.86465,-17.86462 v -17.86466 h -17.86466 v 17.86466 z m -35.72929,-3e-5 V 342.92859 H 396.5226 v 17.86466 z m 17.86464,0 v -17.86466 h -17.86466 v 17.86466 z m -3e-5,-17.86469 V 325.0639 h -17.86466 v 17.86466 z m -35.72931,0 V 325.0639 H 378.6579 v 17.86466 z m 17.86465,0 V 325.0639 h -17.86466 v 17.86466 z m -89.32327,89.32327 h 17.86467 v 17.86466 h -17.86467 z m 35.72937,35.72931 h 17.86467 v 17.86466 h -17.86467 z m -17.86468,-17.86465 h 17.86466 v 17.86466 h -17.86466 z m 17.86468,0 h 17.86467 v 17.86466 h -17.86467 z m 0,-17.86466 h 17.86467 v 17.86466 h -17.86467 z m -3e-5,-17.86465 h 17.86467 v 17.86466 h -17.86467 z m -17.86465,17.86465 h 17.86466 v 17.86466 h -17.86466 z m -3e-5,-35.72931 h 17.86466 v 17.86466 H 342.9286 Z m 0,17.86466 h 17.86466 v 17.86466 H 342.9286 Z m -17.86466,0 h 17.86467 v 17.86466 h -17.86467 z m -3e-5,-35.72931 h 17.86467 v 17.86466 h -17.86467 z m 0,17.86465 h 17.86467 v 17.86466 h -17.86467 z" />
    <path
       id="rect66-23-0-2-7-8-2-7-78-7"
       style="fill:#37c871;fill-opacity:1;fill-rule:evenodd;stroke-width:0.264583"
       d="m 57.09402,235.7407 v -17.86469 h 17.86467 v 17.86469 z m 35.72932,-35.72939 v -17.86467 h 17.86465 v 17.86467 z m -17.86465,17.86466 v -17.86466 h 17.86465 v 17.86466 z m 0,-17.86466 v -17.86467 h 17.86465 v 17.86467 z m -17.86467,0 v -17.86467 h 17.86467 v 17.86467 z m -17.86465,3e-5 v -17.86467 h 17.86466 v 17.86467 z m 17.86466,17.86462 V 200.0113 h 17.86466 v 17.86466 z m -35.72932,4e-5 V 200.01133 H 39.22938 V 217.876 Z m 17.86467,0 V 200.01133 H 57.09404 V 217.876 Z m 0,17.86468 v -17.86467 h 17.86466 v 17.86467 z m -35.72931,0 v -17.86467 h 17.86464 v 17.86467 z m 17.86464,0 v -17.86467 h 17.86467 v 17.86467 z M 182.14668,57.094074 h 17.86466 V 39.229412 h -17.86466 z m 35.72937,-35.729322 h 17.86466 V 3.50009 H 217.87605 Z M 200.01136,39.22942 h 17.86466 V 21.364758 h -17.86466 z m 17.86466,0 h 17.86466 V 21.364758 h -17.86466 z m 0,17.864654 h 17.86466 V 39.229412 h -17.86466 z m -3e-5,17.864659 h 17.86466 V 57.09407 H 217.87599 Z M 200.01136,57.094074 h 17.86466 V 39.229412 h -17.86466 z m -3e-5,35.729313 h 17.86466 V 74.958725 h -17.86466 z m 0,-17.864654 h 17.86466 V 57.09407 h -17.86466 z m -17.86465,0 h 17.86466 V 57.09407 h -17.86466 z m -3e-5,35.729317 h 17.86466 V 92.823387 h -17.86466 z m 0,-17.864663 h 17.86466 V 74.958725 H 182.14665 Z M 432.25192,253.60521 V 271.4699 H 414.38724 V 253.60521 Z M 396.5226,289.3346 v 17.86467 H 378.65795 V 289.3346 Z m 17.86464,-17.86466 V 289.3346 H 396.5226 v -17.86466 z m 0,17.86466 v 17.86467 H 396.5226 V 289.3346 Z m 17.86468,0 v 17.86467 H 414.38724 V 289.3346 Z m 17.86465,-3e-5 v 17.86467 h -17.86466 v -17.86467 z m -17.86466,-17.86462 v 17.86466 h -17.86467 v -17.86466 z m 35.72932,-4e-5 v 17.86467 h -17.86467 v -17.86467 z m -17.86467,0 v 17.86467 H 432.2519 v -17.86467 z m 0,-17.86468 V 271.4699 H 432.2519 v -17.86467 z m 35.72931,0 v 17.86467 h -17.86464 v -17.86467 z m -17.86464,0 V 271.4699 H 450.11656 V 253.60523 Z M 307.19926,432.25183 H 289.3346 v 17.86466 h 17.86466 z m -35.72937,35.72931 h -17.86466 v 17.86466 h 17.86466 z m 17.86468,-17.86465 h -17.86466 v 17.86466 h 17.86466 z m -17.86465,0 h -17.86466 v 17.86466 h 17.86466 z m 0,-17.86466 h -17.86466 v 17.86466 h 17.86466 z m 3e-5,-17.86465 h -17.86466 v 17.86466 h 17.86466 z m 17.86462,17.86465 h -17.86466 v 17.86466 h 17.86466 z m 3e-5,-35.72931 h -17.86466 v 17.86466 h 17.86466 z m 0,17.86466 h -17.86466 v 17.86466 h 17.86466 z m 17.86466,0 H 289.3346 v 17.86466 h 17.86466 z m 3e-5,-35.72931 h -17.86466 v 17.86466 h 17.86466 z m 0,17.86465 h -17.86466 v 17.86466 h 17.86466 z" />
    <path
       style="fill:none;stroke:#000000;stroke-width:3;stroke-linecap:butt;stroke-linejoin:miter;stroke-miterlimit:4;stroke-dasharray:none;stroke-opacity:1"
       d="m 182.14663,110.68805 2e-5,-71.458611 h 17.8647 V 21.36477 h 17.86464 l 2e-5,-17.86466 h 17.86466 l -5e-5,71.458639 h -17.86466 l 1e-5,17.86464 H 200.0113 v 17.864661 h -17.86467"
       id="path35981-3" />
    <path
       style="fill:none;stroke:#000000;stroke-width:3;stroke-linecap:butt;stroke-linejoin:miter;stroke-miterlimit:4;stroke-dasharray:none;stroke-opacity:1"
       d="m 164.28198,39.229439 1e-5,71.458611 h -17.86465 l -3e-5,-17.864661 H 128.55266 V 74.958749 H 110.688 l -6e-5,-71.458639 h 17.86467 l 1e-5,17.86466 h 17.86466 v 17.864669 z"
       id="path35983-7" />
    <path
       style="fill:none;stroke:#000000;stroke-width:3;stroke-linecap:butt;stroke-linejoin:miter;stroke-miterlimit:4;stroke-dasharray:none;stroke-opacity:1"
       d="M 110.68803,164.28201 V 146.41735 H 92.82339 l -5e-5,-17.86469 H 74.95869 v -17.86465 l -71.45858,-3e-5 v 17.86466 l 17.86464,-1e-5 v 17.86466 l 17.86464,6e-5 v 17.86466 z"
       id="path35985-95" />
    <path
       style="fill:none;stroke:#000000;stroke-width:3;stroke-linecap:butt;stroke-linejoin:miter;stroke-miterlimit:4;stroke-dasharray:none;stroke-opacity:1"
       d="m 110.68803,182.14666 v 17.86466 H 92.82339 l -5e-5,17.86469 H 74.95869 v 17.86465 l -71.45858,3e-5 v -17.86466 l 17.86464,1e-5 v -17.86466 l 17.86464,-6e-5 v -17.86466 z"
       id="path35985-9-6" />
    <path
       style="fill:none;stroke:#000000;stroke-width:3;stroke-linecap:butt;stroke-linejoin:miter;stroke-miterlimit:4;stroke-dasharray:none;stroke-opacity:1"
       d="M 128.55269,128.55269 92.82335,92.823409"
       id="path36388-9" />
    <path
       style="fill:none;stroke:#000000;stroke-width:3;stroke-linecap:butt;stroke-linejoin:miter;stroke-miterlimit:4;stroke-dasharray:none;stroke-opacity:1"
       d="m 235.74061,110.68805 v 17.86464 h -17.86466 v -17.86464 h 17.86466"
       id="path36627-2" />
    <path
       style="fill:none;stroke:#000000;stroke-width:3;stroke-linecap:butt;stroke-linejoin:miter;stroke-miterlimit:4;stroke-dasharray:none;stroke-opacity:1"
       d="m 128.55267,217.87599 v 17.86464 h -17.86466 v -17.86464 h 17.86466"
       id="path36627-0-9" />
    <path
       style="fill:none;stroke:#000000;stroke-width:3;stroke-linecap:butt;stroke-linejoin:miter;stroke-miterlimit:4;stroke-dasharray:none;stroke-opacity:1"
       d="M 74.95865,39.229469 V 3.50019 H 57.094"
       id="path36963-1" />
    <path
       style="fill:none;stroke:#000000;stroke-width:3;stroke-linecap:butt;stroke-linejoin:miter;stroke-miterlimit:4;stroke-dasharray:none;stroke-opacity:1"
       d="M 39.22938,74.958759 H 3.5001 v -17.86466"
       id="path36963-5-4" />
    <path
       style="fill:none;stroke:#000000;stroke-width:3;stroke-linecap:butt;stroke-linejoin:miter;stroke-miterlimit:4;stroke-dasharray:none;stroke-opacity:1"
       d="M 39.22931,39.229469 21.36478,21.36477 21.36467,3.50019 h 17.86464 l 5e-5,17.86464"
       id="path37449-8" />
    <path
       style="fill:none;stroke:#000000;stroke-width:3;stroke-linecap:butt;stroke-linejoin:miter;stroke-miterlimit:4;stroke-dasharray:none;stroke-opacity:1"
       d="m 21.36467,21.36483 -17.86456,-6e-5 v 17.864639 l 17.86467,3e-5"
       id="path37666-0" />
    <path
       style="fill:none;stroke:#000000;stroke-width:3;stroke-linecap:butt;stroke-linejoin:miter;stroke-miterlimit:4;stroke-dasharray:none;stroke-opacity:1"
       d="m 378.65791,307.19925 v -17.86466 h 17.86464 l 5e-5,-17.86469 h 17.86464 v -17.86465 l 71.45859,-3e-5 v 17.86466 l -17.86464,-10e-6 v 17.86466 l -17.86464,6e-5 v 17.86466 z"
       id="path35985-9-3" />
    <path
       style="fill:none;stroke:#000000;stroke-width:3;stroke-linecap:butt;stroke-linejoin:miter;stroke-miterlimit:4;stroke-dasharray:none;stroke-opacity:1"
       d="m 378.65791,325.0639 v 17.86466 h 17.86464 l 5e-5,17.86469 h 17.86464 v 17.86465 l 71.45859,3e-5 v -17.86466 l -17.86464,10e-6 v -17.86466 l -17.86464,-6e-5 V 325.0639 Z"
       id="path35985-9-3-3" />
    <path
       style="fill:none;stroke:#000000;stroke-width:3;stroke-linecap:butt;stroke-linejoin:miter;stroke-miterlimit:4;stroke-dasharray:none;stroke-opacity:1"
       d="m 325.06391,378.65785 h 17.86466 v 17.86464 l 17.86469,5e-5 v 17.86464 h 17.86465 l 3e-5,71.45859 h -17.86466 l 1e-5,-17.86464 h -17.86466 l -6e-5,-17.86464 h -17.86466 z"
       id="path35985-9-3-4" />
    <path
       style="fill:none;stroke:#000000;stroke-width:3;stroke-linecap:butt;stroke-linejoin:miter;stroke-miterlimit:4;stroke-dasharray:none;stroke-opacity:1"
       d="m 307.1993,378.65786 h -17.86466 v 17.86464 l -17.86469,5e-5 v 17.86464 H 253.6053 l -3e-5,71.45859 h 17.86466 l -10e-6,-17.86464 h 17.86467 l 6e-5,-17.86464 h 17.86466 z"
       id="path35985-9-3-1" />
    <path
       style="fill:none;stroke:#000000;stroke-width:3;stroke-linecap:butt;stroke-linejoin:miter;stroke-miterlimit:4;stroke-dasharray:none;stroke-opacity:1"
       d="m 307.1993,110.68801 v 17.86466 h -35.72931 v 17.86466 H 253.60532 V 164.282 h 17.86466 v 17.86466 h 35.72932 l -10e-6,35.72931 h 17.86467 v 17.86467 h 17.86465 v -17.86468 h 17.86465 v -35.72932 h 17.86466 l -2e-5,35.72932 h 17.86467 v 17.86465 h 17.86466 v -17.86466 h 17.86465 v -35.72932 h 35.72932 l 3e-5,-17.86466 h 17.86464 V 146.41731 H 467.9812 v -17.86467 h -35.72932 l 6e-5,-17.86465 h 35.72931 l 3e-5,-17.86467 h 17.86467 V 74.958661 h -17.86467 l -3e-5,-17.864662 -35.72937,1.7e-5 V 21.364699 H 414.38723 V 3.50004 H 396.52257 V 21.364679 H 378.6579 l 2e-5,35.72932 -17.86466,6e-6 V 21.364679 H 342.92861 V 3.50001 h -17.86465 v 17.864659 h -17.86467 l 10e-6,35.72933 H 271.46998 V 74.958661 H 253.60531 V 92.82332 h 17.86466 l -10e-6,17.86467 h 35.72933"
       id="path30042-7" />
    <path
       style="fill:none;stroke:#000000;stroke-width:3;stroke-linecap:butt;stroke-linejoin:miter;stroke-miterlimit:4;stroke-dasharray:none;stroke-opacity:1"
       d="m 57.09399,360.79326 v 17.86466 H 21.36468 v 17.86466 H 3.50001 v 17.86467 h 17.86466 v 17.86466 h 35.72932 l -10e-6,35.72931 h 17.86467 v 17.86467 H 92.8233 v -17.86468 h 17.86465 v -35.72932 h 17.86466 l -2e-5,35.72932 h 17.86467 v 17.86465 h 17.86466 V 467.9812 h 17.86465 v -35.72932 h 35.72932 l 3e-5,-17.86466 h 17.86464 v -17.86466 h -17.86467 v -17.86467 h -35.72932 l 6e-5,-17.86465 h 35.72931 l 3e-5,-17.86467 h 17.86467 v -17.86466 h -17.86467 l -3e-5,-17.86466 -35.72937,2e-5 v -35.72932 h -17.86465 v -17.86466 h -17.86466 v 17.86464 h -17.86467 l 2e-5,35.72932 -17.86466,10e-6 V 271.46993 H 92.8233 V 253.60526 H 74.95865 v 17.86466 H 57.09398 l 10e-6,35.72933 H 21.36467 v 17.86466 H 3.5 v 17.86466 h 17.86466 l -10e-6,17.86467 h 35.72933"
       id="path30042-8" />
  </g>
</svg>
