<?xml version="1.0" encoding="UTF-8" standalone="no"?>
<!-- Created with Inkscape (http://www.inkscape.org/) -->

<svg
   version="1.1"
   id="svg9"
   width="240"
   height="100"
   viewBox="0 0 240 100"
   sodipodi:docname="click-arrow.svg"
   inkscape:version="1.1.2 (b8e25be833, 2022-02-05)"
   xmlns:inkscape="http://www.inkscape.org/namespaces/inkscape"
   xmlns:sodipodi="http://sodipodi.sourceforge.net/DTD/sodipodi-0.dtd"
   xmlns="http://www.w3.org/2000/svg"
   xmlns:svg="http://www.w3.org/2000/svg">
  <defs
     id="defs13" />
  <sodipodi:namedview
     id="namedview11"
     pagecolor="#ffffff"
     bordercolor="#666666"
     borderopacity="1.0"
     inkscape:pageshadow="2"
     inkscape:pageopacity="0.0"
     inkscape:pagecheckerboard="0"
     showgrid="false"
     inkscape:zoom="2.3931534"
     inkscape:cx="142.90768"
     inkscape:cy="123.89511"
     inkscape:window-width="1920"
     inkscape:window-height="991"
     inkscape:window-x="-9"
     inkscape:window-y="-9"
     inkscape:window-maximized="1"
     inkscape:current-layer="g15"
     width="240px" />
  <g
     inkscape:groupmode="layer"
     inkscape:label="Image"
     id="g15">
    <path
       style="fill:#454541;fill-opacity:1;stroke:#454541;stroke-opacity:1"
       d="m 83.736321,34.866011 c 2.025253,1.604303 3.850454,3.372757 5.476516,5.276879"
       id="path10619" />
    <path
       style="fill:#454541;fill-opacity:1;stroke:#454541;stroke-opacity:1"
       d="m 73.93826,29.12408 c 2.173678,0.907677 4.205854,1.959037 6.097076,3.137295"
       id="path10617" />
    <path
       style="fill:#454541;fill-opacity:1;stroke:#454541;stroke-opacity:1"
       d="m 62.468027,25.947627 c 2.227354,0.345358 4.352265,0.813325 6.375105,1.393676"
       id="path10615" />
    <path
       style="fill:#454541;fill-opacity:1;stroke:#454541;stroke-opacity:1"
       d="m 50.151184,25.302516 c 2.521966,-0.101364 4.945397,-0.0687 7.270592,0.08851"
       id="path10613" />
    <path
       style="fill:#454541;fill-opacity:1;stroke:#454541;stroke-opacity:1"
       d="m 37.371366,26.841695 c 2.687103,-0.523002 5.285303,-0.911954 7.794884,-1.175032"
       id="path10611" />
    <path
       style="fill:#454541;fill-opacity:1;stroke:#454541;stroke-opacity:1"
       d="m 26.742956,29.487499 c 2.359309,-0.709024 4.660075,-1.323328 6.902415,-1.84724"
       id="path10609" />
    <path
       style="fill:none;fill-opacity:1;stroke:#454541;stroke-opacity:1"
       d="m 95.791829,54.539473 c -0.639408,3.492169 -3.063381,5.868877 -4.698633,7.123143"
       id="path10607" />
    <path
       style="fill:#454541;fill-opacity:1;stroke:#454541;stroke-opacity:1"
       d="m 92.662112,44.12933 c 1.548673,2.137026 2.46523,4.090641 2.922514,5.860379"
       id="path10605" />
    <path
       style="fill:none;fill-opacity:1;stroke:#454541;stroke-opacity:1"
       d="M 75.612577,55.715812 C 74.552424,53.553113 74.244248,50.821169 75.214564,47.455421"
       id="path10603" />
    <path
       style="fill:#454541;fill-opacity:1;stroke:#454541;stroke-opacity:1"
       d="m 86.470858,62.350966 c -2.349562,-0.224922 -5.07917,-1.06675 -7.325139,-2.631381"
       id="path10601" />
    <path
       style="fill:#454541;fill-opacity:1;stroke:#454541;stroke-opacity:1"
       d="m 187.96881,35.257145 c 0.58458,-0.642449 1.16432,-1.311827 1.73904,-2.008999"
       id="path10599" />
    <path
       style="fill:#454541;fill-opacity:1;stroke:#454541;stroke-opacity:1"
       d="m 179.63397,42.479878 c 1.53706,-1.015394 3.04924,-2.169598 4.53417,-3.475288"
       id="path10597" />
    <path
       style="fill:#454541;fill-opacity:1;stroke:#454541;stroke-opacity:1"
       d="m 168.85322,47.385081 c 2.03536,-0.562375 4.04057,-1.294956 6.01107,-2.222083"
       id="path10595" />
    <path
       style="fill:#454541;fill-opacity:1;stroke:#454541;stroke-opacity:1"
       d="m 157.74486,48.907261 c 2.19784,-0.03554 4.37216,-0.206494 6.51793,-0.539681"
       id="path10593" />
    <path
       style="fill:#454541;fill-opacity:1;stroke:#454541;stroke-opacity:1"
       d="m 145.75317,47.951473 c 2.40661,0.385692 4.79681,0.672732 7.16461,0.828997"
       id="path10591" />
    <path
       style="fill:#454541;fill-opacity:1;stroke:#454541;stroke-opacity:1"
       d="m 134.49812,45.574509 c 2.16675,0.544505 4.3279,1.050465 6.47927,1.495467"
       id="path10589" />
    <path
       style="fill:#454541;fill-opacity:1;stroke:#454541;stroke-opacity:1"
       d="m 123.77986,41.843719 c 2.27614,1.100511 4.57977,2.116194 6.99007,2.761346"
       id="path10587" />
    <path
       style="fill:#454541;fill-opacity:1;stroke:#454541;stroke-opacity:1"
       d="m 112.5034,37.017596 c 2.32019,0.595749 4.54504,1.549038 6.74631,2.600914"
       id="path10585" />
    <path
       style="fill:#454541;fill-opacity:1;stroke:#454541;stroke-opacity:1"
       d="m 100.91102,36.534895 c 2.15824,0.02635 4.32742,0.02388 6.47867,-0.152804"
       id="path10583" />
    <path
       style="fill:#454541;fill-opacity:1;stroke:#454541;stroke-opacity:1"
       d="m 87.388301,37.426963 c 2.658532,-0.709906 5.449456,-0.903331 8.302545,-0.934632"
       id="path10581" />
    <path
       style="fill:#454541;fill-opacity:1;stroke:#454541;stroke-opacity:1"
       d="m 78.12369,43.263141 c 1.67172,-1.940192 3.469239,-3.33199 5.362324,-4.327841"
       id="path10579" />
    <path
       style="fill:#454541;fill-opacity:1;stroke:#454541;stroke-opacity:1"
       d="m 184.48584,29.559799 5.73772,3.449294 5.73773,3.449303 0.11831,-6.693664 0.11832,-6.693665 -5.85604,3.244361 z"
       id="path4388" />
    <text
       xml:space="preserve"
       style="font-style:normal;font-variant:normal;font-weight:normal;font-stretch:normal;font-size:14.9952px;line-height:1.25;font-family:'Gill Sans Ultra Bold';-inkscape-font-specification:'Gill Sans Ultra Bold, ';fill:#454541;fill-opacity:1;stroke:none;stroke-width:0.374879"
       x="21.725325"
       y="17.850121"
       id="text11425"><tspan
         id="tspan11423"
         x="21.725325"
         y="17.850121"
         style="font-style:normal;font-variant:normal;font-weight:normal;font-stretch:normal;font-family:'Goudy Stout';-inkscape-font-specification:'Goudy Stout';stroke-width:0.374879"
         sodipodi:role="line">CLICK!</tspan></text>
  </g>
</svg>
